%TF.GenerationSoftware,KiCad,Pcbnew,9.0.3*%
%TF.CreationDate,2025-12-16T11:33:01+01:00*%
%TF.ProjectId,PTP_Project1_Dovsak,5054505f-5072-46f6-9a65-6374315f446f,rev?*%
%TF.SameCoordinates,Original*%
%TF.FileFunction,Legend,Top*%
%TF.FilePolarity,Positive*%
%FSLAX46Y46*%
G04 Gerber Fmt 4.6, Leading zero omitted, Abs format (unit mm)*
G04 Created by KiCad (PCBNEW 9.0.3) date 2025-12-16 11:33:01*
%MOMM*%
%LPD*%
G01*
G04 APERTURE LIST*
%ADD10C,0.150000*%
%ADD11C,0.120000*%
G04 APERTURE END LIST*
D10*
X224312969Y-133369819D02*
X223836779Y-133369819D01*
X223836779Y-133369819D02*
X223836779Y-132369819D01*
X225027255Y-133322200D02*
X224932017Y-133369819D01*
X224932017Y-133369819D02*
X224741541Y-133369819D01*
X224741541Y-133369819D02*
X224646303Y-133322200D01*
X224646303Y-133322200D02*
X224598684Y-133226961D01*
X224598684Y-133226961D02*
X224598684Y-132846009D01*
X224598684Y-132846009D02*
X224646303Y-132750771D01*
X224646303Y-132750771D02*
X224741541Y-132703152D01*
X224741541Y-132703152D02*
X224932017Y-132703152D01*
X224932017Y-132703152D02*
X225027255Y-132750771D01*
X225027255Y-132750771D02*
X225074874Y-132846009D01*
X225074874Y-132846009D02*
X225074874Y-132941247D01*
X225074874Y-132941247D02*
X224598684Y-133036485D01*
X225646303Y-133369819D02*
X225551065Y-133322200D01*
X225551065Y-133322200D02*
X225503446Y-133274580D01*
X225503446Y-133274580D02*
X225455827Y-133179342D01*
X225455827Y-133179342D02*
X225455827Y-132893628D01*
X225455827Y-132893628D02*
X225503446Y-132798390D01*
X225503446Y-132798390D02*
X225551065Y-132750771D01*
X225551065Y-132750771D02*
X225646303Y-132703152D01*
X225646303Y-132703152D02*
X225789160Y-132703152D01*
X225789160Y-132703152D02*
X225884398Y-132750771D01*
X225884398Y-132750771D02*
X225932017Y-132798390D01*
X225932017Y-132798390D02*
X225979636Y-132893628D01*
X225979636Y-132893628D02*
X225979636Y-133179342D01*
X225979636Y-133179342D02*
X225932017Y-133274580D01*
X225932017Y-133274580D02*
X225884398Y-133322200D01*
X225884398Y-133322200D02*
X225789160Y-133369819D01*
X225789160Y-133369819D02*
X225646303Y-133369819D01*
X226408208Y-132703152D02*
X226408208Y-133369819D01*
X226408208Y-132798390D02*
X226455827Y-132750771D01*
X226455827Y-132750771D02*
X226551065Y-132703152D01*
X226551065Y-132703152D02*
X226693922Y-132703152D01*
X226693922Y-132703152D02*
X226789160Y-132750771D01*
X226789160Y-132750771D02*
X226836779Y-132846009D01*
X226836779Y-132846009D02*
X226836779Y-133369819D01*
X228074875Y-133369819D02*
X228074875Y-132369819D01*
X228074875Y-132369819D02*
X228312970Y-132369819D01*
X228312970Y-132369819D02*
X228455827Y-132417438D01*
X228455827Y-132417438D02*
X228551065Y-132512676D01*
X228551065Y-132512676D02*
X228598684Y-132607914D01*
X228598684Y-132607914D02*
X228646303Y-132798390D01*
X228646303Y-132798390D02*
X228646303Y-132941247D01*
X228646303Y-132941247D02*
X228598684Y-133131723D01*
X228598684Y-133131723D02*
X228551065Y-133226961D01*
X228551065Y-133226961D02*
X228455827Y-133322200D01*
X228455827Y-133322200D02*
X228312970Y-133369819D01*
X228312970Y-133369819D02*
X228074875Y-133369819D01*
X229217732Y-133369819D02*
X229122494Y-133322200D01*
X229122494Y-133322200D02*
X229074875Y-133274580D01*
X229074875Y-133274580D02*
X229027256Y-133179342D01*
X229027256Y-133179342D02*
X229027256Y-132893628D01*
X229027256Y-132893628D02*
X229074875Y-132798390D01*
X229074875Y-132798390D02*
X229122494Y-132750771D01*
X229122494Y-132750771D02*
X229217732Y-132703152D01*
X229217732Y-132703152D02*
X229360589Y-132703152D01*
X229360589Y-132703152D02*
X229455827Y-132750771D01*
X229455827Y-132750771D02*
X229503446Y-132798390D01*
X229503446Y-132798390D02*
X229551065Y-132893628D01*
X229551065Y-132893628D02*
X229551065Y-133179342D01*
X229551065Y-133179342D02*
X229503446Y-133274580D01*
X229503446Y-133274580D02*
X229455827Y-133322200D01*
X229455827Y-133322200D02*
X229360589Y-133369819D01*
X229360589Y-133369819D02*
X229217732Y-133369819D01*
X229884399Y-132703152D02*
X230122494Y-133369819D01*
X230122494Y-133369819D02*
X230360589Y-132703152D01*
X230693923Y-133322200D02*
X230789161Y-133369819D01*
X230789161Y-133369819D02*
X230979637Y-133369819D01*
X230979637Y-133369819D02*
X231074875Y-133322200D01*
X231074875Y-133322200D02*
X231122494Y-133226961D01*
X231122494Y-133226961D02*
X231122494Y-133179342D01*
X231122494Y-133179342D02*
X231074875Y-133084104D01*
X231074875Y-133084104D02*
X230979637Y-133036485D01*
X230979637Y-133036485D02*
X230836780Y-133036485D01*
X230836780Y-133036485D02*
X230741542Y-132988866D01*
X230741542Y-132988866D02*
X230693923Y-132893628D01*
X230693923Y-132893628D02*
X230693923Y-132846009D01*
X230693923Y-132846009D02*
X230741542Y-132750771D01*
X230741542Y-132750771D02*
X230836780Y-132703152D01*
X230836780Y-132703152D02*
X230979637Y-132703152D01*
X230979637Y-132703152D02*
X231074875Y-132750771D01*
X230693923Y-132322200D02*
X230884399Y-132465057D01*
X230884399Y-132465057D02*
X231074875Y-132322200D01*
X231979637Y-133369819D02*
X231979637Y-132846009D01*
X231979637Y-132846009D02*
X231932018Y-132750771D01*
X231932018Y-132750771D02*
X231836780Y-132703152D01*
X231836780Y-132703152D02*
X231646304Y-132703152D01*
X231646304Y-132703152D02*
X231551066Y-132750771D01*
X231979637Y-133322200D02*
X231884399Y-133369819D01*
X231884399Y-133369819D02*
X231646304Y-133369819D01*
X231646304Y-133369819D02*
X231551066Y-133322200D01*
X231551066Y-133322200D02*
X231503447Y-133226961D01*
X231503447Y-133226961D02*
X231503447Y-133131723D01*
X231503447Y-133131723D02*
X231551066Y-133036485D01*
X231551066Y-133036485D02*
X231646304Y-132988866D01*
X231646304Y-132988866D02*
X231884399Y-132988866D01*
X231884399Y-132988866D02*
X231979637Y-132941247D01*
X232455828Y-133369819D02*
X232455828Y-132369819D01*
X232551066Y-132988866D02*
X232836780Y-133369819D01*
X232836780Y-132703152D02*
X232455828Y-133084104D01*
X243738095Y-65004819D02*
X243738095Y-64004819D01*
X243738095Y-64481009D02*
X244309523Y-64481009D01*
X244309523Y-65004819D02*
X244309523Y-64004819D01*
X245309523Y-65004819D02*
X244738095Y-65004819D01*
X245023809Y-65004819D02*
X245023809Y-64004819D01*
X245023809Y-64004819D02*
X244928571Y-64147676D01*
X244928571Y-64147676D02*
X244833333Y-64242914D01*
X244833333Y-64242914D02*
X244738095Y-64290533D01*
X213259819Y-72761666D02*
X212783628Y-73094999D01*
X213259819Y-73333094D02*
X212259819Y-73333094D01*
X212259819Y-73333094D02*
X212259819Y-72952142D01*
X212259819Y-72952142D02*
X212307438Y-72856904D01*
X212307438Y-72856904D02*
X212355057Y-72809285D01*
X212355057Y-72809285D02*
X212450295Y-72761666D01*
X212450295Y-72761666D02*
X212593152Y-72761666D01*
X212593152Y-72761666D02*
X212688390Y-72809285D01*
X212688390Y-72809285D02*
X212736009Y-72856904D01*
X212736009Y-72856904D02*
X212783628Y-72952142D01*
X212783628Y-72952142D02*
X212783628Y-73333094D01*
X212259819Y-72428332D02*
X212259819Y-71809285D01*
X212259819Y-71809285D02*
X212640771Y-72142618D01*
X212640771Y-72142618D02*
X212640771Y-71999761D01*
X212640771Y-71999761D02*
X212688390Y-71904523D01*
X212688390Y-71904523D02*
X212736009Y-71856904D01*
X212736009Y-71856904D02*
X212831247Y-71809285D01*
X212831247Y-71809285D02*
X213069342Y-71809285D01*
X213069342Y-71809285D02*
X213164580Y-71856904D01*
X213164580Y-71856904D02*
X213212200Y-71904523D01*
X213212200Y-71904523D02*
X213259819Y-71999761D01*
X213259819Y-71999761D02*
X213259819Y-72285475D01*
X213259819Y-72285475D02*
X213212200Y-72380713D01*
X213212200Y-72380713D02*
X213164580Y-72428332D01*
X231257142Y-99204819D02*
X230923809Y-98728628D01*
X230685714Y-99204819D02*
X230685714Y-98204819D01*
X230685714Y-98204819D02*
X231066666Y-98204819D01*
X231066666Y-98204819D02*
X231161904Y-98252438D01*
X231161904Y-98252438D02*
X231209523Y-98300057D01*
X231209523Y-98300057D02*
X231257142Y-98395295D01*
X231257142Y-98395295D02*
X231257142Y-98538152D01*
X231257142Y-98538152D02*
X231209523Y-98633390D01*
X231209523Y-98633390D02*
X231161904Y-98681009D01*
X231161904Y-98681009D02*
X231066666Y-98728628D01*
X231066666Y-98728628D02*
X230685714Y-98728628D01*
X232209523Y-99204819D02*
X231638095Y-99204819D01*
X231923809Y-99204819D02*
X231923809Y-98204819D01*
X231923809Y-98204819D02*
X231828571Y-98347676D01*
X231828571Y-98347676D02*
X231733333Y-98442914D01*
X231733333Y-98442914D02*
X231638095Y-98490533D01*
X232780952Y-98633390D02*
X232685714Y-98585771D01*
X232685714Y-98585771D02*
X232638095Y-98538152D01*
X232638095Y-98538152D02*
X232590476Y-98442914D01*
X232590476Y-98442914D02*
X232590476Y-98395295D01*
X232590476Y-98395295D02*
X232638095Y-98300057D01*
X232638095Y-98300057D02*
X232685714Y-98252438D01*
X232685714Y-98252438D02*
X232780952Y-98204819D01*
X232780952Y-98204819D02*
X232971428Y-98204819D01*
X232971428Y-98204819D02*
X233066666Y-98252438D01*
X233066666Y-98252438D02*
X233114285Y-98300057D01*
X233114285Y-98300057D02*
X233161904Y-98395295D01*
X233161904Y-98395295D02*
X233161904Y-98442914D01*
X233161904Y-98442914D02*
X233114285Y-98538152D01*
X233114285Y-98538152D02*
X233066666Y-98585771D01*
X233066666Y-98585771D02*
X232971428Y-98633390D01*
X232971428Y-98633390D02*
X232780952Y-98633390D01*
X232780952Y-98633390D02*
X232685714Y-98681009D01*
X232685714Y-98681009D02*
X232638095Y-98728628D01*
X232638095Y-98728628D02*
X232590476Y-98823866D01*
X232590476Y-98823866D02*
X232590476Y-99014342D01*
X232590476Y-99014342D02*
X232638095Y-99109580D01*
X232638095Y-99109580D02*
X232685714Y-99157200D01*
X232685714Y-99157200D02*
X232780952Y-99204819D01*
X232780952Y-99204819D02*
X232971428Y-99204819D01*
X232971428Y-99204819D02*
X233066666Y-99157200D01*
X233066666Y-99157200D02*
X233114285Y-99109580D01*
X233114285Y-99109580D02*
X233161904Y-99014342D01*
X233161904Y-99014342D02*
X233161904Y-98823866D01*
X233161904Y-98823866D02*
X233114285Y-98728628D01*
X233114285Y-98728628D02*
X233066666Y-98681009D01*
X233066666Y-98681009D02*
X232971428Y-98633390D01*
X163738095Y-65004819D02*
X163738095Y-64004819D01*
X163738095Y-64481009D02*
X164309523Y-64481009D01*
X164309523Y-65004819D02*
X164309523Y-64004819D01*
X165214285Y-64338152D02*
X165214285Y-65004819D01*
X164976190Y-63957200D02*
X164738095Y-64671485D01*
X164738095Y-64671485D02*
X165357142Y-64671485D01*
X223178095Y-91344819D02*
X223178095Y-92154342D01*
X223178095Y-92154342D02*
X223225714Y-92249580D01*
X223225714Y-92249580D02*
X223273333Y-92297200D01*
X223273333Y-92297200D02*
X223368571Y-92344819D01*
X223368571Y-92344819D02*
X223559047Y-92344819D01*
X223559047Y-92344819D02*
X223654285Y-92297200D01*
X223654285Y-92297200D02*
X223701904Y-92249580D01*
X223701904Y-92249580D02*
X223749523Y-92154342D01*
X223749523Y-92154342D02*
X223749523Y-91344819D01*
X224654285Y-91678152D02*
X224654285Y-92344819D01*
X224416190Y-91297200D02*
X224178095Y-92011485D01*
X224178095Y-92011485D02*
X224797142Y-92011485D01*
X239357142Y-93204819D02*
X239023809Y-92728628D01*
X238785714Y-93204819D02*
X238785714Y-92204819D01*
X238785714Y-92204819D02*
X239166666Y-92204819D01*
X239166666Y-92204819D02*
X239261904Y-92252438D01*
X239261904Y-92252438D02*
X239309523Y-92300057D01*
X239309523Y-92300057D02*
X239357142Y-92395295D01*
X239357142Y-92395295D02*
X239357142Y-92538152D01*
X239357142Y-92538152D02*
X239309523Y-92633390D01*
X239309523Y-92633390D02*
X239261904Y-92681009D01*
X239261904Y-92681009D02*
X239166666Y-92728628D01*
X239166666Y-92728628D02*
X238785714Y-92728628D01*
X240309523Y-93204819D02*
X239738095Y-93204819D01*
X240023809Y-93204819D02*
X240023809Y-92204819D01*
X240023809Y-92204819D02*
X239928571Y-92347676D01*
X239928571Y-92347676D02*
X239833333Y-92442914D01*
X239833333Y-92442914D02*
X239738095Y-92490533D01*
X241214285Y-92204819D02*
X240738095Y-92204819D01*
X240738095Y-92204819D02*
X240690476Y-92681009D01*
X240690476Y-92681009D02*
X240738095Y-92633390D01*
X240738095Y-92633390D02*
X240833333Y-92585771D01*
X240833333Y-92585771D02*
X241071428Y-92585771D01*
X241071428Y-92585771D02*
X241166666Y-92633390D01*
X241166666Y-92633390D02*
X241214285Y-92681009D01*
X241214285Y-92681009D02*
X241261904Y-92776247D01*
X241261904Y-92776247D02*
X241261904Y-93014342D01*
X241261904Y-93014342D02*
X241214285Y-93109580D01*
X241214285Y-93109580D02*
X241166666Y-93157200D01*
X241166666Y-93157200D02*
X241071428Y-93204819D01*
X241071428Y-93204819D02*
X240833333Y-93204819D01*
X240833333Y-93204819D02*
X240738095Y-93157200D01*
X240738095Y-93157200D02*
X240690476Y-93109580D01*
X180609580Y-112729166D02*
X180657200Y-112776785D01*
X180657200Y-112776785D02*
X180704819Y-112919642D01*
X180704819Y-112919642D02*
X180704819Y-113014880D01*
X180704819Y-113014880D02*
X180657200Y-113157737D01*
X180657200Y-113157737D02*
X180561961Y-113252975D01*
X180561961Y-113252975D02*
X180466723Y-113300594D01*
X180466723Y-113300594D02*
X180276247Y-113348213D01*
X180276247Y-113348213D02*
X180133390Y-113348213D01*
X180133390Y-113348213D02*
X179942914Y-113300594D01*
X179942914Y-113300594D02*
X179847676Y-113252975D01*
X179847676Y-113252975D02*
X179752438Y-113157737D01*
X179752438Y-113157737D02*
X179704819Y-113014880D01*
X179704819Y-113014880D02*
X179704819Y-112919642D01*
X179704819Y-112919642D02*
X179752438Y-112776785D01*
X179752438Y-112776785D02*
X179800057Y-112729166D01*
X179704819Y-111824404D02*
X179704819Y-112300594D01*
X179704819Y-112300594D02*
X180181009Y-112348213D01*
X180181009Y-112348213D02*
X180133390Y-112300594D01*
X180133390Y-112300594D02*
X180085771Y-112205356D01*
X180085771Y-112205356D02*
X180085771Y-111967261D01*
X180085771Y-111967261D02*
X180133390Y-111872023D01*
X180133390Y-111872023D02*
X180181009Y-111824404D01*
X180181009Y-111824404D02*
X180276247Y-111776785D01*
X180276247Y-111776785D02*
X180514342Y-111776785D01*
X180514342Y-111776785D02*
X180609580Y-111824404D01*
X180609580Y-111824404D02*
X180657200Y-111872023D01*
X180657200Y-111872023D02*
X180704819Y-111967261D01*
X180704819Y-111967261D02*
X180704819Y-112205356D01*
X180704819Y-112205356D02*
X180657200Y-112300594D01*
X180657200Y-112300594D02*
X180609580Y-112348213D01*
X231257142Y-96204819D02*
X230923809Y-95728628D01*
X230685714Y-96204819D02*
X230685714Y-95204819D01*
X230685714Y-95204819D02*
X231066666Y-95204819D01*
X231066666Y-95204819D02*
X231161904Y-95252438D01*
X231161904Y-95252438D02*
X231209523Y-95300057D01*
X231209523Y-95300057D02*
X231257142Y-95395295D01*
X231257142Y-95395295D02*
X231257142Y-95538152D01*
X231257142Y-95538152D02*
X231209523Y-95633390D01*
X231209523Y-95633390D02*
X231161904Y-95681009D01*
X231161904Y-95681009D02*
X231066666Y-95728628D01*
X231066666Y-95728628D02*
X230685714Y-95728628D01*
X232209523Y-96204819D02*
X231638095Y-96204819D01*
X231923809Y-96204819D02*
X231923809Y-95204819D01*
X231923809Y-95204819D02*
X231828571Y-95347676D01*
X231828571Y-95347676D02*
X231733333Y-95442914D01*
X231733333Y-95442914D02*
X231638095Y-95490533D01*
X232542857Y-95204819D02*
X233209523Y-95204819D01*
X233209523Y-95204819D02*
X232780952Y-96204819D01*
X184647919Y-83231621D02*
X184647919Y-84041144D01*
X184647919Y-84041144D02*
X184695538Y-84136382D01*
X184695538Y-84136382D02*
X184743157Y-84184002D01*
X184743157Y-84184002D02*
X184838395Y-84231621D01*
X184838395Y-84231621D02*
X185028871Y-84231621D01*
X185028871Y-84231621D02*
X185124109Y-84184002D01*
X185124109Y-84184002D02*
X185171728Y-84136382D01*
X185171728Y-84136382D02*
X185219347Y-84041144D01*
X185219347Y-84041144D02*
X185219347Y-83231621D01*
X186219347Y-84231621D02*
X185647919Y-84231621D01*
X185933633Y-84231621D02*
X185933633Y-83231621D01*
X185933633Y-83231621D02*
X185838395Y-83374478D01*
X185838395Y-83374478D02*
X185743157Y-83469716D01*
X185743157Y-83469716D02*
X185647919Y-83517335D01*
X212636905Y-80904819D02*
X212636905Y-79904819D01*
X212636905Y-79904819D02*
X212875000Y-79904819D01*
X212875000Y-79904819D02*
X213017857Y-79952438D01*
X213017857Y-79952438D02*
X213113095Y-80047676D01*
X213113095Y-80047676D02*
X213160714Y-80142914D01*
X213160714Y-80142914D02*
X213208333Y-80333390D01*
X213208333Y-80333390D02*
X213208333Y-80476247D01*
X213208333Y-80476247D02*
X213160714Y-80666723D01*
X213160714Y-80666723D02*
X213113095Y-80761961D01*
X213113095Y-80761961D02*
X213017857Y-80857200D01*
X213017857Y-80857200D02*
X212875000Y-80904819D01*
X212875000Y-80904819D02*
X212636905Y-80904819D01*
X213541667Y-79904819D02*
X214160714Y-79904819D01*
X214160714Y-79904819D02*
X213827381Y-80285771D01*
X213827381Y-80285771D02*
X213970238Y-80285771D01*
X213970238Y-80285771D02*
X214065476Y-80333390D01*
X214065476Y-80333390D02*
X214113095Y-80381009D01*
X214113095Y-80381009D02*
X214160714Y-80476247D01*
X214160714Y-80476247D02*
X214160714Y-80714342D01*
X214160714Y-80714342D02*
X214113095Y-80809580D01*
X214113095Y-80809580D02*
X214065476Y-80857200D01*
X214065476Y-80857200D02*
X213970238Y-80904819D01*
X213970238Y-80904819D02*
X213684524Y-80904819D01*
X213684524Y-80904819D02*
X213589286Y-80857200D01*
X213589286Y-80857200D02*
X213541667Y-80809580D01*
X163738095Y-125004819D02*
X163738095Y-124004819D01*
X163738095Y-124481009D02*
X164309523Y-124481009D01*
X164309523Y-125004819D02*
X164309523Y-124004819D01*
X164690476Y-124004819D02*
X165309523Y-124004819D01*
X165309523Y-124004819D02*
X164976190Y-124385771D01*
X164976190Y-124385771D02*
X165119047Y-124385771D01*
X165119047Y-124385771D02*
X165214285Y-124433390D01*
X165214285Y-124433390D02*
X165261904Y-124481009D01*
X165261904Y-124481009D02*
X165309523Y-124576247D01*
X165309523Y-124576247D02*
X165309523Y-124814342D01*
X165309523Y-124814342D02*
X165261904Y-124909580D01*
X165261904Y-124909580D02*
X165214285Y-124957200D01*
X165214285Y-124957200D02*
X165119047Y-125004819D01*
X165119047Y-125004819D02*
X164833333Y-125004819D01*
X164833333Y-125004819D02*
X164738095Y-124957200D01*
X164738095Y-124957200D02*
X164690476Y-124909580D01*
X220684819Y-72711666D02*
X220208628Y-73044999D01*
X220684819Y-73283094D02*
X219684819Y-73283094D01*
X219684819Y-73283094D02*
X219684819Y-72902142D01*
X219684819Y-72902142D02*
X219732438Y-72806904D01*
X219732438Y-72806904D02*
X219780057Y-72759285D01*
X219780057Y-72759285D02*
X219875295Y-72711666D01*
X219875295Y-72711666D02*
X220018152Y-72711666D01*
X220018152Y-72711666D02*
X220113390Y-72759285D01*
X220113390Y-72759285D02*
X220161009Y-72806904D01*
X220161009Y-72806904D02*
X220208628Y-72902142D01*
X220208628Y-72902142D02*
X220208628Y-73283094D01*
X219780057Y-72330713D02*
X219732438Y-72283094D01*
X219732438Y-72283094D02*
X219684819Y-72187856D01*
X219684819Y-72187856D02*
X219684819Y-71949761D01*
X219684819Y-71949761D02*
X219732438Y-71854523D01*
X219732438Y-71854523D02*
X219780057Y-71806904D01*
X219780057Y-71806904D02*
X219875295Y-71759285D01*
X219875295Y-71759285D02*
X219970533Y-71759285D01*
X219970533Y-71759285D02*
X220113390Y-71806904D01*
X220113390Y-71806904D02*
X220684819Y-72378332D01*
X220684819Y-72378332D02*
X220684819Y-71759285D01*
X232283333Y-108204819D02*
X231950000Y-107728628D01*
X231711905Y-108204819D02*
X231711905Y-107204819D01*
X231711905Y-107204819D02*
X232092857Y-107204819D01*
X232092857Y-107204819D02*
X232188095Y-107252438D01*
X232188095Y-107252438D02*
X232235714Y-107300057D01*
X232235714Y-107300057D02*
X232283333Y-107395295D01*
X232283333Y-107395295D02*
X232283333Y-107538152D01*
X232283333Y-107538152D02*
X232235714Y-107633390D01*
X232235714Y-107633390D02*
X232188095Y-107681009D01*
X232188095Y-107681009D02*
X232092857Y-107728628D01*
X232092857Y-107728628D02*
X231711905Y-107728628D01*
X233140476Y-107204819D02*
X232950000Y-107204819D01*
X232950000Y-107204819D02*
X232854762Y-107252438D01*
X232854762Y-107252438D02*
X232807143Y-107300057D01*
X232807143Y-107300057D02*
X232711905Y-107442914D01*
X232711905Y-107442914D02*
X232664286Y-107633390D01*
X232664286Y-107633390D02*
X232664286Y-108014342D01*
X232664286Y-108014342D02*
X232711905Y-108109580D01*
X232711905Y-108109580D02*
X232759524Y-108157200D01*
X232759524Y-108157200D02*
X232854762Y-108204819D01*
X232854762Y-108204819D02*
X233045238Y-108204819D01*
X233045238Y-108204819D02*
X233140476Y-108157200D01*
X233140476Y-108157200D02*
X233188095Y-108109580D01*
X233188095Y-108109580D02*
X233235714Y-108014342D01*
X233235714Y-108014342D02*
X233235714Y-107776247D01*
X233235714Y-107776247D02*
X233188095Y-107681009D01*
X233188095Y-107681009D02*
X233140476Y-107633390D01*
X233140476Y-107633390D02*
X233045238Y-107585771D01*
X233045238Y-107585771D02*
X232854762Y-107585771D01*
X232854762Y-107585771D02*
X232759524Y-107633390D01*
X232759524Y-107633390D02*
X232711905Y-107681009D01*
X232711905Y-107681009D02*
X232664286Y-107776247D01*
X243738095Y-125004819D02*
X243738095Y-124004819D01*
X243738095Y-124481009D02*
X244309523Y-124481009D01*
X244309523Y-125004819D02*
X244309523Y-124004819D01*
X244738095Y-124100057D02*
X244785714Y-124052438D01*
X244785714Y-124052438D02*
X244880952Y-124004819D01*
X244880952Y-124004819D02*
X245119047Y-124004819D01*
X245119047Y-124004819D02*
X245214285Y-124052438D01*
X245214285Y-124052438D02*
X245261904Y-124100057D01*
X245261904Y-124100057D02*
X245309523Y-124195295D01*
X245309523Y-124195295D02*
X245309523Y-124290533D01*
X245309523Y-124290533D02*
X245261904Y-124433390D01*
X245261904Y-124433390D02*
X244690476Y-125004819D01*
X244690476Y-125004819D02*
X245309523Y-125004819D01*
X169520833Y-115509580D02*
X169473214Y-115557200D01*
X169473214Y-115557200D02*
X169330357Y-115604819D01*
X169330357Y-115604819D02*
X169235119Y-115604819D01*
X169235119Y-115604819D02*
X169092262Y-115557200D01*
X169092262Y-115557200D02*
X168997024Y-115461961D01*
X168997024Y-115461961D02*
X168949405Y-115366723D01*
X168949405Y-115366723D02*
X168901786Y-115176247D01*
X168901786Y-115176247D02*
X168901786Y-115033390D01*
X168901786Y-115033390D02*
X168949405Y-114842914D01*
X168949405Y-114842914D02*
X168997024Y-114747676D01*
X168997024Y-114747676D02*
X169092262Y-114652438D01*
X169092262Y-114652438D02*
X169235119Y-114604819D01*
X169235119Y-114604819D02*
X169330357Y-114604819D01*
X169330357Y-114604819D02*
X169473214Y-114652438D01*
X169473214Y-114652438D02*
X169520833Y-114700057D01*
X170377976Y-114938152D02*
X170377976Y-115604819D01*
X170139881Y-114557200D02*
X169901786Y-115271485D01*
X169901786Y-115271485D02*
X170520833Y-115271485D01*
X205769819Y-72771666D02*
X205293628Y-73104999D01*
X205769819Y-73343094D02*
X204769819Y-73343094D01*
X204769819Y-73343094D02*
X204769819Y-72962142D01*
X204769819Y-72962142D02*
X204817438Y-72866904D01*
X204817438Y-72866904D02*
X204865057Y-72819285D01*
X204865057Y-72819285D02*
X204960295Y-72771666D01*
X204960295Y-72771666D02*
X205103152Y-72771666D01*
X205103152Y-72771666D02*
X205198390Y-72819285D01*
X205198390Y-72819285D02*
X205246009Y-72866904D01*
X205246009Y-72866904D02*
X205293628Y-72962142D01*
X205293628Y-72962142D02*
X205293628Y-73343094D01*
X205103152Y-71914523D02*
X205769819Y-71914523D01*
X204722200Y-72152618D02*
X205436485Y-72390713D01*
X205436485Y-72390713D02*
X205436485Y-71771666D01*
X204133333Y-121004819D02*
X203800000Y-120528628D01*
X203561905Y-121004819D02*
X203561905Y-120004819D01*
X203561905Y-120004819D02*
X203942857Y-120004819D01*
X203942857Y-120004819D02*
X204038095Y-120052438D01*
X204038095Y-120052438D02*
X204085714Y-120100057D01*
X204085714Y-120100057D02*
X204133333Y-120195295D01*
X204133333Y-120195295D02*
X204133333Y-120338152D01*
X204133333Y-120338152D02*
X204085714Y-120433390D01*
X204085714Y-120433390D02*
X204038095Y-120481009D01*
X204038095Y-120481009D02*
X203942857Y-120528628D01*
X203942857Y-120528628D02*
X203561905Y-120528628D01*
X204609524Y-121004819D02*
X204800000Y-121004819D01*
X204800000Y-121004819D02*
X204895238Y-120957200D01*
X204895238Y-120957200D02*
X204942857Y-120909580D01*
X204942857Y-120909580D02*
X205038095Y-120766723D01*
X205038095Y-120766723D02*
X205085714Y-120576247D01*
X205085714Y-120576247D02*
X205085714Y-120195295D01*
X205085714Y-120195295D02*
X205038095Y-120100057D01*
X205038095Y-120100057D02*
X204990476Y-120052438D01*
X204990476Y-120052438D02*
X204895238Y-120004819D01*
X204895238Y-120004819D02*
X204704762Y-120004819D01*
X204704762Y-120004819D02*
X204609524Y-120052438D01*
X204609524Y-120052438D02*
X204561905Y-120100057D01*
X204561905Y-120100057D02*
X204514286Y-120195295D01*
X204514286Y-120195295D02*
X204514286Y-120433390D01*
X204514286Y-120433390D02*
X204561905Y-120528628D01*
X204561905Y-120528628D02*
X204609524Y-120576247D01*
X204609524Y-120576247D02*
X204704762Y-120623866D01*
X204704762Y-120623866D02*
X204895238Y-120623866D01*
X204895238Y-120623866D02*
X204990476Y-120576247D01*
X204990476Y-120576247D02*
X205038095Y-120528628D01*
X205038095Y-120528628D02*
X205085714Y-120433390D01*
X227611905Y-81104819D02*
X227611905Y-80104819D01*
X227611905Y-80104819D02*
X227850000Y-80104819D01*
X227850000Y-80104819D02*
X227992857Y-80152438D01*
X227992857Y-80152438D02*
X228088095Y-80247676D01*
X228088095Y-80247676D02*
X228135714Y-80342914D01*
X228135714Y-80342914D02*
X228183333Y-80533390D01*
X228183333Y-80533390D02*
X228183333Y-80676247D01*
X228183333Y-80676247D02*
X228135714Y-80866723D01*
X228135714Y-80866723D02*
X228088095Y-80961961D01*
X228088095Y-80961961D02*
X227992857Y-81057200D01*
X227992857Y-81057200D02*
X227850000Y-81104819D01*
X227850000Y-81104819D02*
X227611905Y-81104819D01*
X229135714Y-81104819D02*
X228564286Y-81104819D01*
X228850000Y-81104819D02*
X228850000Y-80104819D01*
X228850000Y-80104819D02*
X228754762Y-80247676D01*
X228754762Y-80247676D02*
X228659524Y-80342914D01*
X228659524Y-80342914D02*
X228564286Y-80390533D01*
X160874819Y-113842857D02*
X160398628Y-114176190D01*
X160874819Y-114414285D02*
X159874819Y-114414285D01*
X159874819Y-114414285D02*
X159874819Y-114033333D01*
X159874819Y-114033333D02*
X159922438Y-113938095D01*
X159922438Y-113938095D02*
X159970057Y-113890476D01*
X159970057Y-113890476D02*
X160065295Y-113842857D01*
X160065295Y-113842857D02*
X160208152Y-113842857D01*
X160208152Y-113842857D02*
X160303390Y-113890476D01*
X160303390Y-113890476D02*
X160351009Y-113938095D01*
X160351009Y-113938095D02*
X160398628Y-114033333D01*
X160398628Y-114033333D02*
X160398628Y-114414285D01*
X159970057Y-113461904D02*
X159922438Y-113414285D01*
X159922438Y-113414285D02*
X159874819Y-113319047D01*
X159874819Y-113319047D02*
X159874819Y-113080952D01*
X159874819Y-113080952D02*
X159922438Y-112985714D01*
X159922438Y-112985714D02*
X159970057Y-112938095D01*
X159970057Y-112938095D02*
X160065295Y-112890476D01*
X160065295Y-112890476D02*
X160160533Y-112890476D01*
X160160533Y-112890476D02*
X160303390Y-112938095D01*
X160303390Y-112938095D02*
X160874819Y-113509523D01*
X160874819Y-113509523D02*
X160874819Y-112890476D01*
X159874819Y-112271428D02*
X159874819Y-112176190D01*
X159874819Y-112176190D02*
X159922438Y-112080952D01*
X159922438Y-112080952D02*
X159970057Y-112033333D01*
X159970057Y-112033333D02*
X160065295Y-111985714D01*
X160065295Y-111985714D02*
X160255771Y-111938095D01*
X160255771Y-111938095D02*
X160493866Y-111938095D01*
X160493866Y-111938095D02*
X160684342Y-111985714D01*
X160684342Y-111985714D02*
X160779580Y-112033333D01*
X160779580Y-112033333D02*
X160827200Y-112080952D01*
X160827200Y-112080952D02*
X160874819Y-112176190D01*
X160874819Y-112176190D02*
X160874819Y-112271428D01*
X160874819Y-112271428D02*
X160827200Y-112366666D01*
X160827200Y-112366666D02*
X160779580Y-112414285D01*
X160779580Y-112414285D02*
X160684342Y-112461904D01*
X160684342Y-112461904D02*
X160493866Y-112509523D01*
X160493866Y-112509523D02*
X160255771Y-112509523D01*
X160255771Y-112509523D02*
X160065295Y-112461904D01*
X160065295Y-112461904D02*
X159970057Y-112414285D01*
X159970057Y-112414285D02*
X159922438Y-112366666D01*
X159922438Y-112366666D02*
X159874819Y-112271428D01*
X205361905Y-80654819D02*
X205361905Y-79654819D01*
X205361905Y-79654819D02*
X205600000Y-79654819D01*
X205600000Y-79654819D02*
X205742857Y-79702438D01*
X205742857Y-79702438D02*
X205838095Y-79797676D01*
X205838095Y-79797676D02*
X205885714Y-79892914D01*
X205885714Y-79892914D02*
X205933333Y-80083390D01*
X205933333Y-80083390D02*
X205933333Y-80226247D01*
X205933333Y-80226247D02*
X205885714Y-80416723D01*
X205885714Y-80416723D02*
X205838095Y-80511961D01*
X205838095Y-80511961D02*
X205742857Y-80607200D01*
X205742857Y-80607200D02*
X205600000Y-80654819D01*
X205600000Y-80654819D02*
X205361905Y-80654819D01*
X206838095Y-79654819D02*
X206361905Y-79654819D01*
X206361905Y-79654819D02*
X206314286Y-80131009D01*
X206314286Y-80131009D02*
X206361905Y-80083390D01*
X206361905Y-80083390D02*
X206457143Y-80035771D01*
X206457143Y-80035771D02*
X206695238Y-80035771D01*
X206695238Y-80035771D02*
X206790476Y-80083390D01*
X206790476Y-80083390D02*
X206838095Y-80131009D01*
X206838095Y-80131009D02*
X206885714Y-80226247D01*
X206885714Y-80226247D02*
X206885714Y-80464342D01*
X206885714Y-80464342D02*
X206838095Y-80559580D01*
X206838095Y-80559580D02*
X206790476Y-80607200D01*
X206790476Y-80607200D02*
X206695238Y-80654819D01*
X206695238Y-80654819D02*
X206457143Y-80654819D01*
X206457143Y-80654819D02*
X206361905Y-80607200D01*
X206361905Y-80607200D02*
X206314286Y-80559580D01*
X231357142Y-114204819D02*
X231023809Y-113728628D01*
X230785714Y-114204819D02*
X230785714Y-113204819D01*
X230785714Y-113204819D02*
X231166666Y-113204819D01*
X231166666Y-113204819D02*
X231261904Y-113252438D01*
X231261904Y-113252438D02*
X231309523Y-113300057D01*
X231309523Y-113300057D02*
X231357142Y-113395295D01*
X231357142Y-113395295D02*
X231357142Y-113538152D01*
X231357142Y-113538152D02*
X231309523Y-113633390D01*
X231309523Y-113633390D02*
X231261904Y-113681009D01*
X231261904Y-113681009D02*
X231166666Y-113728628D01*
X231166666Y-113728628D02*
X230785714Y-113728628D01*
X232309523Y-114204819D02*
X231738095Y-114204819D01*
X232023809Y-114204819D02*
X232023809Y-113204819D01*
X232023809Y-113204819D02*
X231928571Y-113347676D01*
X231928571Y-113347676D02*
X231833333Y-113442914D01*
X231833333Y-113442914D02*
X231738095Y-113490533D01*
X233166666Y-113538152D02*
X233166666Y-114204819D01*
X232928571Y-113157200D02*
X232690476Y-113871485D01*
X232690476Y-113871485D02*
X233309523Y-113871485D01*
X195608333Y-120934580D02*
X195560714Y-120982200D01*
X195560714Y-120982200D02*
X195417857Y-121029819D01*
X195417857Y-121029819D02*
X195322619Y-121029819D01*
X195322619Y-121029819D02*
X195179762Y-120982200D01*
X195179762Y-120982200D02*
X195084524Y-120886961D01*
X195084524Y-120886961D02*
X195036905Y-120791723D01*
X195036905Y-120791723D02*
X194989286Y-120601247D01*
X194989286Y-120601247D02*
X194989286Y-120458390D01*
X194989286Y-120458390D02*
X195036905Y-120267914D01*
X195036905Y-120267914D02*
X195084524Y-120172676D01*
X195084524Y-120172676D02*
X195179762Y-120077438D01*
X195179762Y-120077438D02*
X195322619Y-120029819D01*
X195322619Y-120029819D02*
X195417857Y-120029819D01*
X195417857Y-120029819D02*
X195560714Y-120077438D01*
X195560714Y-120077438D02*
X195608333Y-120125057D01*
X195941667Y-120029819D02*
X196560714Y-120029819D01*
X196560714Y-120029819D02*
X196227381Y-120410771D01*
X196227381Y-120410771D02*
X196370238Y-120410771D01*
X196370238Y-120410771D02*
X196465476Y-120458390D01*
X196465476Y-120458390D02*
X196513095Y-120506009D01*
X196513095Y-120506009D02*
X196560714Y-120601247D01*
X196560714Y-120601247D02*
X196560714Y-120839342D01*
X196560714Y-120839342D02*
X196513095Y-120934580D01*
X196513095Y-120934580D02*
X196465476Y-120982200D01*
X196465476Y-120982200D02*
X196370238Y-121029819D01*
X196370238Y-121029819D02*
X196084524Y-121029819D01*
X196084524Y-121029819D02*
X195989286Y-120982200D01*
X195989286Y-120982200D02*
X195941667Y-120934580D01*
X188986905Y-65959819D02*
X188986905Y-64959819D01*
X188986905Y-64959819D02*
X189225000Y-64959819D01*
X189225000Y-64959819D02*
X189367857Y-65007438D01*
X189367857Y-65007438D02*
X189463095Y-65102676D01*
X189463095Y-65102676D02*
X189510714Y-65197914D01*
X189510714Y-65197914D02*
X189558333Y-65388390D01*
X189558333Y-65388390D02*
X189558333Y-65531247D01*
X189558333Y-65531247D02*
X189510714Y-65721723D01*
X189510714Y-65721723D02*
X189463095Y-65816961D01*
X189463095Y-65816961D02*
X189367857Y-65912200D01*
X189367857Y-65912200D02*
X189225000Y-65959819D01*
X189225000Y-65959819D02*
X188986905Y-65959819D01*
X190415476Y-65293152D02*
X190415476Y-65959819D01*
X190177381Y-64912200D02*
X189939286Y-65626485D01*
X189939286Y-65626485D02*
X190558333Y-65626485D01*
X183113095Y-66329819D02*
X183113095Y-65329819D01*
X183684523Y-66329819D02*
X183255952Y-65758390D01*
X183684523Y-65329819D02*
X183113095Y-65901247D01*
X169143095Y-99314819D02*
X169143095Y-100124342D01*
X169143095Y-100124342D02*
X169190714Y-100219580D01*
X169190714Y-100219580D02*
X169238333Y-100267200D01*
X169238333Y-100267200D02*
X169333571Y-100314819D01*
X169333571Y-100314819D02*
X169524047Y-100314819D01*
X169524047Y-100314819D02*
X169619285Y-100267200D01*
X169619285Y-100267200D02*
X169666904Y-100219580D01*
X169666904Y-100219580D02*
X169714523Y-100124342D01*
X169714523Y-100124342D02*
X169714523Y-99314819D01*
X170095476Y-99314819D02*
X170762142Y-99314819D01*
X170762142Y-99314819D02*
X170333571Y-100314819D01*
X193109580Y-75666666D02*
X193157200Y-75714285D01*
X193157200Y-75714285D02*
X193204819Y-75857142D01*
X193204819Y-75857142D02*
X193204819Y-75952380D01*
X193204819Y-75952380D02*
X193157200Y-76095237D01*
X193157200Y-76095237D02*
X193061961Y-76190475D01*
X193061961Y-76190475D02*
X192966723Y-76238094D01*
X192966723Y-76238094D02*
X192776247Y-76285713D01*
X192776247Y-76285713D02*
X192633390Y-76285713D01*
X192633390Y-76285713D02*
X192442914Y-76238094D01*
X192442914Y-76238094D02*
X192347676Y-76190475D01*
X192347676Y-76190475D02*
X192252438Y-76095237D01*
X192252438Y-76095237D02*
X192204819Y-75952380D01*
X192204819Y-75952380D02*
X192204819Y-75857142D01*
X192204819Y-75857142D02*
X192252438Y-75714285D01*
X192252438Y-75714285D02*
X192300057Y-75666666D01*
X192300057Y-75285713D02*
X192252438Y-75238094D01*
X192252438Y-75238094D02*
X192204819Y-75142856D01*
X192204819Y-75142856D02*
X192204819Y-74904761D01*
X192204819Y-74904761D02*
X192252438Y-74809523D01*
X192252438Y-74809523D02*
X192300057Y-74761904D01*
X192300057Y-74761904D02*
X192395295Y-74714285D01*
X192395295Y-74714285D02*
X192490533Y-74714285D01*
X192490533Y-74714285D02*
X192633390Y-74761904D01*
X192633390Y-74761904D02*
X193204819Y-75333332D01*
X193204819Y-75333332D02*
X193204819Y-74714285D01*
X192604819Y-85166666D02*
X192604819Y-85642856D01*
X192604819Y-85642856D02*
X191604819Y-85642856D01*
X192604819Y-84309523D02*
X192604819Y-84880951D01*
X192604819Y-84595237D02*
X191604819Y-84595237D01*
X191604819Y-84595237D02*
X191747676Y-84690475D01*
X191747676Y-84690475D02*
X191842914Y-84785713D01*
X191842914Y-84785713D02*
X191890533Y-84880951D01*
X204666667Y-131157200D02*
X204809524Y-131204819D01*
X204809524Y-131204819D02*
X205047619Y-131204819D01*
X205047619Y-131204819D02*
X205142857Y-131157200D01*
X205142857Y-131157200D02*
X205190476Y-131109580D01*
X205190476Y-131109580D02*
X205238095Y-131014342D01*
X205238095Y-131014342D02*
X205238095Y-130919104D01*
X205238095Y-130919104D02*
X205190476Y-130823866D01*
X205190476Y-130823866D02*
X205142857Y-130776247D01*
X205142857Y-130776247D02*
X205047619Y-130728628D01*
X205047619Y-130728628D02*
X204857143Y-130681009D01*
X204857143Y-130681009D02*
X204761905Y-130633390D01*
X204761905Y-130633390D02*
X204714286Y-130585771D01*
X204714286Y-130585771D02*
X204666667Y-130490533D01*
X204666667Y-130490533D02*
X204666667Y-130395295D01*
X204666667Y-130395295D02*
X204714286Y-130300057D01*
X204714286Y-130300057D02*
X204761905Y-130252438D01*
X204761905Y-130252438D02*
X204857143Y-130204819D01*
X204857143Y-130204819D02*
X205095238Y-130204819D01*
X205095238Y-130204819D02*
X205238095Y-130252438D01*
X205571429Y-130204819D02*
X205809524Y-131204819D01*
X205809524Y-131204819D02*
X206000000Y-130490533D01*
X206000000Y-130490533D02*
X206190476Y-131204819D01*
X206190476Y-131204819D02*
X206428572Y-130204819D01*
X207333333Y-131204819D02*
X206761905Y-131204819D01*
X207047619Y-131204819D02*
X207047619Y-130204819D01*
X207047619Y-130204819D02*
X206952381Y-130347676D01*
X206952381Y-130347676D02*
X206857143Y-130442914D01*
X206857143Y-130442914D02*
X206761905Y-130490533D01*
X177641667Y-108532200D02*
X177784524Y-108579819D01*
X177784524Y-108579819D02*
X178022619Y-108579819D01*
X178022619Y-108579819D02*
X178117857Y-108532200D01*
X178117857Y-108532200D02*
X178165476Y-108484580D01*
X178165476Y-108484580D02*
X178213095Y-108389342D01*
X178213095Y-108389342D02*
X178213095Y-108294104D01*
X178213095Y-108294104D02*
X178165476Y-108198866D01*
X178165476Y-108198866D02*
X178117857Y-108151247D01*
X178117857Y-108151247D02*
X178022619Y-108103628D01*
X178022619Y-108103628D02*
X177832143Y-108056009D01*
X177832143Y-108056009D02*
X177736905Y-108008390D01*
X177736905Y-108008390D02*
X177689286Y-107960771D01*
X177689286Y-107960771D02*
X177641667Y-107865533D01*
X177641667Y-107865533D02*
X177641667Y-107770295D01*
X177641667Y-107770295D02*
X177689286Y-107675057D01*
X177689286Y-107675057D02*
X177736905Y-107627438D01*
X177736905Y-107627438D02*
X177832143Y-107579819D01*
X177832143Y-107579819D02*
X178070238Y-107579819D01*
X178070238Y-107579819D02*
X178213095Y-107627438D01*
X178546429Y-107579819D02*
X178784524Y-108579819D01*
X178784524Y-108579819D02*
X178975000Y-107865533D01*
X178975000Y-107865533D02*
X179165476Y-108579819D01*
X179165476Y-108579819D02*
X179403572Y-107579819D01*
X179736905Y-107675057D02*
X179784524Y-107627438D01*
X179784524Y-107627438D02*
X179879762Y-107579819D01*
X179879762Y-107579819D02*
X180117857Y-107579819D01*
X180117857Y-107579819D02*
X180213095Y-107627438D01*
X180213095Y-107627438D02*
X180260714Y-107675057D01*
X180260714Y-107675057D02*
X180308333Y-107770295D01*
X180308333Y-107770295D02*
X180308333Y-107865533D01*
X180308333Y-107865533D02*
X180260714Y-108008390D01*
X180260714Y-108008390D02*
X179689286Y-108579819D01*
X179689286Y-108579819D02*
X180308333Y-108579819D01*
X210254819Y-120342857D02*
X209778628Y-120676190D01*
X210254819Y-120914285D02*
X209254819Y-120914285D01*
X209254819Y-120914285D02*
X209254819Y-120533333D01*
X209254819Y-120533333D02*
X209302438Y-120438095D01*
X209302438Y-120438095D02*
X209350057Y-120390476D01*
X209350057Y-120390476D02*
X209445295Y-120342857D01*
X209445295Y-120342857D02*
X209588152Y-120342857D01*
X209588152Y-120342857D02*
X209683390Y-120390476D01*
X209683390Y-120390476D02*
X209731009Y-120438095D01*
X209731009Y-120438095D02*
X209778628Y-120533333D01*
X209778628Y-120533333D02*
X209778628Y-120914285D01*
X210254819Y-119390476D02*
X210254819Y-119961904D01*
X210254819Y-119676190D02*
X209254819Y-119676190D01*
X209254819Y-119676190D02*
X209397676Y-119771428D01*
X209397676Y-119771428D02*
X209492914Y-119866666D01*
X209492914Y-119866666D02*
X209540533Y-119961904D01*
X210254819Y-118438095D02*
X210254819Y-119009523D01*
X210254819Y-118723809D02*
X209254819Y-118723809D01*
X209254819Y-118723809D02*
X209397676Y-118819047D01*
X209397676Y-118819047D02*
X209492914Y-118914285D01*
X209492914Y-118914285D02*
X209540533Y-119009523D01*
X209678095Y-91344819D02*
X209678095Y-92154342D01*
X209678095Y-92154342D02*
X209725714Y-92249580D01*
X209725714Y-92249580D02*
X209773333Y-92297200D01*
X209773333Y-92297200D02*
X209868571Y-92344819D01*
X209868571Y-92344819D02*
X210059047Y-92344819D01*
X210059047Y-92344819D02*
X210154285Y-92297200D01*
X210154285Y-92297200D02*
X210201904Y-92249580D01*
X210201904Y-92249580D02*
X210249523Y-92154342D01*
X210249523Y-92154342D02*
X210249523Y-91344819D01*
X210630476Y-91344819D02*
X211249523Y-91344819D01*
X211249523Y-91344819D02*
X210916190Y-91725771D01*
X210916190Y-91725771D02*
X211059047Y-91725771D01*
X211059047Y-91725771D02*
X211154285Y-91773390D01*
X211154285Y-91773390D02*
X211201904Y-91821009D01*
X211201904Y-91821009D02*
X211249523Y-91916247D01*
X211249523Y-91916247D02*
X211249523Y-92154342D01*
X211249523Y-92154342D02*
X211201904Y-92249580D01*
X211201904Y-92249580D02*
X211154285Y-92297200D01*
X211154285Y-92297200D02*
X211059047Y-92344819D01*
X211059047Y-92344819D02*
X210773333Y-92344819D01*
X210773333Y-92344819D02*
X210678095Y-92297200D01*
X210678095Y-92297200D02*
X210630476Y-92249580D01*
X245348095Y-95595819D02*
X245348095Y-96405342D01*
X245348095Y-96405342D02*
X245395714Y-96500580D01*
X245395714Y-96500580D02*
X245443333Y-96548200D01*
X245443333Y-96548200D02*
X245538571Y-96595819D01*
X245538571Y-96595819D02*
X245729047Y-96595819D01*
X245729047Y-96595819D02*
X245824285Y-96548200D01*
X245824285Y-96548200D02*
X245871904Y-96500580D01*
X245871904Y-96500580D02*
X245919523Y-96405342D01*
X245919523Y-96405342D02*
X245919523Y-95595819D01*
X246871904Y-95595819D02*
X246395714Y-95595819D01*
X246395714Y-95595819D02*
X246348095Y-96072009D01*
X246348095Y-96072009D02*
X246395714Y-96024390D01*
X246395714Y-96024390D02*
X246490952Y-95976771D01*
X246490952Y-95976771D02*
X246729047Y-95976771D01*
X246729047Y-95976771D02*
X246824285Y-96024390D01*
X246824285Y-96024390D02*
X246871904Y-96072009D01*
X246871904Y-96072009D02*
X246919523Y-96167247D01*
X246919523Y-96167247D02*
X246919523Y-96405342D01*
X246919523Y-96405342D02*
X246871904Y-96500580D01*
X246871904Y-96500580D02*
X246824285Y-96548200D01*
X246824285Y-96548200D02*
X246729047Y-96595819D01*
X246729047Y-96595819D02*
X246490952Y-96595819D01*
X246490952Y-96595819D02*
X246395714Y-96548200D01*
X246395714Y-96548200D02*
X246348095Y-96500580D01*
X201333333Y-120954819D02*
X201000000Y-120478628D01*
X200761905Y-120954819D02*
X200761905Y-119954819D01*
X200761905Y-119954819D02*
X201142857Y-119954819D01*
X201142857Y-119954819D02*
X201238095Y-120002438D01*
X201238095Y-120002438D02*
X201285714Y-120050057D01*
X201285714Y-120050057D02*
X201333333Y-120145295D01*
X201333333Y-120145295D02*
X201333333Y-120288152D01*
X201333333Y-120288152D02*
X201285714Y-120383390D01*
X201285714Y-120383390D02*
X201238095Y-120431009D01*
X201238095Y-120431009D02*
X201142857Y-120478628D01*
X201142857Y-120478628D02*
X200761905Y-120478628D01*
X201666667Y-119954819D02*
X202333333Y-119954819D01*
X202333333Y-119954819D02*
X201904762Y-120954819D01*
X232233333Y-105204819D02*
X231900000Y-104728628D01*
X231661905Y-105204819D02*
X231661905Y-104204819D01*
X231661905Y-104204819D02*
X232042857Y-104204819D01*
X232042857Y-104204819D02*
X232138095Y-104252438D01*
X232138095Y-104252438D02*
X232185714Y-104300057D01*
X232185714Y-104300057D02*
X232233333Y-104395295D01*
X232233333Y-104395295D02*
X232233333Y-104538152D01*
X232233333Y-104538152D02*
X232185714Y-104633390D01*
X232185714Y-104633390D02*
X232138095Y-104681009D01*
X232138095Y-104681009D02*
X232042857Y-104728628D01*
X232042857Y-104728628D02*
X231661905Y-104728628D01*
X233138095Y-104204819D02*
X232661905Y-104204819D01*
X232661905Y-104204819D02*
X232614286Y-104681009D01*
X232614286Y-104681009D02*
X232661905Y-104633390D01*
X232661905Y-104633390D02*
X232757143Y-104585771D01*
X232757143Y-104585771D02*
X232995238Y-104585771D01*
X232995238Y-104585771D02*
X233090476Y-104633390D01*
X233090476Y-104633390D02*
X233138095Y-104681009D01*
X233138095Y-104681009D02*
X233185714Y-104776247D01*
X233185714Y-104776247D02*
X233185714Y-105014342D01*
X233185714Y-105014342D02*
X233138095Y-105109580D01*
X233138095Y-105109580D02*
X233090476Y-105157200D01*
X233090476Y-105157200D02*
X232995238Y-105204819D01*
X232995238Y-105204819D02*
X232757143Y-105204819D01*
X232757143Y-105204819D02*
X232661905Y-105157200D01*
X232661905Y-105157200D02*
X232614286Y-105109580D01*
X231257142Y-102204819D02*
X230923809Y-101728628D01*
X230685714Y-102204819D02*
X230685714Y-101204819D01*
X230685714Y-101204819D02*
X231066666Y-101204819D01*
X231066666Y-101204819D02*
X231161904Y-101252438D01*
X231161904Y-101252438D02*
X231209523Y-101300057D01*
X231209523Y-101300057D02*
X231257142Y-101395295D01*
X231257142Y-101395295D02*
X231257142Y-101538152D01*
X231257142Y-101538152D02*
X231209523Y-101633390D01*
X231209523Y-101633390D02*
X231161904Y-101681009D01*
X231161904Y-101681009D02*
X231066666Y-101728628D01*
X231066666Y-101728628D02*
X230685714Y-101728628D01*
X232209523Y-102204819D02*
X231638095Y-102204819D01*
X231923809Y-102204819D02*
X231923809Y-101204819D01*
X231923809Y-101204819D02*
X231828571Y-101347676D01*
X231828571Y-101347676D02*
X231733333Y-101442914D01*
X231733333Y-101442914D02*
X231638095Y-101490533D01*
X233066666Y-101204819D02*
X232876190Y-101204819D01*
X232876190Y-101204819D02*
X232780952Y-101252438D01*
X232780952Y-101252438D02*
X232733333Y-101300057D01*
X232733333Y-101300057D02*
X232638095Y-101442914D01*
X232638095Y-101442914D02*
X232590476Y-101633390D01*
X232590476Y-101633390D02*
X232590476Y-102014342D01*
X232590476Y-102014342D02*
X232638095Y-102109580D01*
X232638095Y-102109580D02*
X232685714Y-102157200D01*
X232685714Y-102157200D02*
X232780952Y-102204819D01*
X232780952Y-102204819D02*
X232971428Y-102204819D01*
X232971428Y-102204819D02*
X233066666Y-102157200D01*
X233066666Y-102157200D02*
X233114285Y-102109580D01*
X233114285Y-102109580D02*
X233161904Y-102014342D01*
X233161904Y-102014342D02*
X233161904Y-101776247D01*
X233161904Y-101776247D02*
X233114285Y-101681009D01*
X233114285Y-101681009D02*
X233066666Y-101633390D01*
X233066666Y-101633390D02*
X232971428Y-101585771D01*
X232971428Y-101585771D02*
X232780952Y-101585771D01*
X232780952Y-101585771D02*
X232685714Y-101633390D01*
X232685714Y-101633390D02*
X232638095Y-101681009D01*
X232638095Y-101681009D02*
X232590476Y-101776247D01*
X228234819Y-72696666D02*
X227758628Y-73029999D01*
X228234819Y-73268094D02*
X227234819Y-73268094D01*
X227234819Y-73268094D02*
X227234819Y-72887142D01*
X227234819Y-72887142D02*
X227282438Y-72791904D01*
X227282438Y-72791904D02*
X227330057Y-72744285D01*
X227330057Y-72744285D02*
X227425295Y-72696666D01*
X227425295Y-72696666D02*
X227568152Y-72696666D01*
X227568152Y-72696666D02*
X227663390Y-72744285D01*
X227663390Y-72744285D02*
X227711009Y-72791904D01*
X227711009Y-72791904D02*
X227758628Y-72887142D01*
X227758628Y-72887142D02*
X227758628Y-73268094D01*
X228234819Y-71744285D02*
X228234819Y-72315713D01*
X228234819Y-72029999D02*
X227234819Y-72029999D01*
X227234819Y-72029999D02*
X227377676Y-72125237D01*
X227377676Y-72125237D02*
X227472914Y-72220475D01*
X227472914Y-72220475D02*
X227520533Y-72315713D01*
X219436905Y-80904819D02*
X219436905Y-79904819D01*
X219436905Y-79904819D02*
X219675000Y-79904819D01*
X219675000Y-79904819D02*
X219817857Y-79952438D01*
X219817857Y-79952438D02*
X219913095Y-80047676D01*
X219913095Y-80047676D02*
X219960714Y-80142914D01*
X219960714Y-80142914D02*
X220008333Y-80333390D01*
X220008333Y-80333390D02*
X220008333Y-80476247D01*
X220008333Y-80476247D02*
X219960714Y-80666723D01*
X219960714Y-80666723D02*
X219913095Y-80761961D01*
X219913095Y-80761961D02*
X219817857Y-80857200D01*
X219817857Y-80857200D02*
X219675000Y-80904819D01*
X219675000Y-80904819D02*
X219436905Y-80904819D01*
X220389286Y-80000057D02*
X220436905Y-79952438D01*
X220436905Y-79952438D02*
X220532143Y-79904819D01*
X220532143Y-79904819D02*
X220770238Y-79904819D01*
X220770238Y-79904819D02*
X220865476Y-79952438D01*
X220865476Y-79952438D02*
X220913095Y-80000057D01*
X220913095Y-80000057D02*
X220960714Y-80095295D01*
X220960714Y-80095295D02*
X220960714Y-80190533D01*
X220960714Y-80190533D02*
X220913095Y-80333390D01*
X220913095Y-80333390D02*
X220341667Y-80904819D01*
X220341667Y-80904819D02*
X220960714Y-80904819D01*
X160624819Y-107592857D02*
X160148628Y-107926190D01*
X160624819Y-108164285D02*
X159624819Y-108164285D01*
X159624819Y-108164285D02*
X159624819Y-107783333D01*
X159624819Y-107783333D02*
X159672438Y-107688095D01*
X159672438Y-107688095D02*
X159720057Y-107640476D01*
X159720057Y-107640476D02*
X159815295Y-107592857D01*
X159815295Y-107592857D02*
X159958152Y-107592857D01*
X159958152Y-107592857D02*
X160053390Y-107640476D01*
X160053390Y-107640476D02*
X160101009Y-107688095D01*
X160101009Y-107688095D02*
X160148628Y-107783333D01*
X160148628Y-107783333D02*
X160148628Y-108164285D01*
X160624819Y-106640476D02*
X160624819Y-107211904D01*
X160624819Y-106926190D02*
X159624819Y-106926190D01*
X159624819Y-106926190D02*
X159767676Y-107021428D01*
X159767676Y-107021428D02*
X159862914Y-107116666D01*
X159862914Y-107116666D02*
X159910533Y-107211904D01*
X160624819Y-106164285D02*
X160624819Y-105973809D01*
X160624819Y-105973809D02*
X160577200Y-105878571D01*
X160577200Y-105878571D02*
X160529580Y-105830952D01*
X160529580Y-105830952D02*
X160386723Y-105735714D01*
X160386723Y-105735714D02*
X160196247Y-105688095D01*
X160196247Y-105688095D02*
X159815295Y-105688095D01*
X159815295Y-105688095D02*
X159720057Y-105735714D01*
X159720057Y-105735714D02*
X159672438Y-105783333D01*
X159672438Y-105783333D02*
X159624819Y-105878571D01*
X159624819Y-105878571D02*
X159624819Y-106069047D01*
X159624819Y-106069047D02*
X159672438Y-106164285D01*
X159672438Y-106164285D02*
X159720057Y-106211904D01*
X159720057Y-106211904D02*
X159815295Y-106259523D01*
X159815295Y-106259523D02*
X160053390Y-106259523D01*
X160053390Y-106259523D02*
X160148628Y-106211904D01*
X160148628Y-106211904D02*
X160196247Y-106164285D01*
X160196247Y-106164285D02*
X160243866Y-106069047D01*
X160243866Y-106069047D02*
X160243866Y-105878571D01*
X160243866Y-105878571D02*
X160196247Y-105783333D01*
X160196247Y-105783333D02*
X160148628Y-105735714D01*
X160148628Y-105735714D02*
X160053390Y-105688095D01*
X207454819Y-120142857D02*
X206978628Y-120476190D01*
X207454819Y-120714285D02*
X206454819Y-120714285D01*
X206454819Y-120714285D02*
X206454819Y-120333333D01*
X206454819Y-120333333D02*
X206502438Y-120238095D01*
X206502438Y-120238095D02*
X206550057Y-120190476D01*
X206550057Y-120190476D02*
X206645295Y-120142857D01*
X206645295Y-120142857D02*
X206788152Y-120142857D01*
X206788152Y-120142857D02*
X206883390Y-120190476D01*
X206883390Y-120190476D02*
X206931009Y-120238095D01*
X206931009Y-120238095D02*
X206978628Y-120333333D01*
X206978628Y-120333333D02*
X206978628Y-120714285D01*
X207454819Y-119190476D02*
X207454819Y-119761904D01*
X207454819Y-119476190D02*
X206454819Y-119476190D01*
X206454819Y-119476190D02*
X206597676Y-119571428D01*
X206597676Y-119571428D02*
X206692914Y-119666666D01*
X206692914Y-119666666D02*
X206740533Y-119761904D01*
X206454819Y-118571428D02*
X206454819Y-118476190D01*
X206454819Y-118476190D02*
X206502438Y-118380952D01*
X206502438Y-118380952D02*
X206550057Y-118333333D01*
X206550057Y-118333333D02*
X206645295Y-118285714D01*
X206645295Y-118285714D02*
X206835771Y-118238095D01*
X206835771Y-118238095D02*
X207073866Y-118238095D01*
X207073866Y-118238095D02*
X207264342Y-118285714D01*
X207264342Y-118285714D02*
X207359580Y-118333333D01*
X207359580Y-118333333D02*
X207407200Y-118380952D01*
X207407200Y-118380952D02*
X207454819Y-118476190D01*
X207454819Y-118476190D02*
X207454819Y-118571428D01*
X207454819Y-118571428D02*
X207407200Y-118666666D01*
X207407200Y-118666666D02*
X207359580Y-118714285D01*
X207359580Y-118714285D02*
X207264342Y-118761904D01*
X207264342Y-118761904D02*
X207073866Y-118809523D01*
X207073866Y-118809523D02*
X206835771Y-118809523D01*
X206835771Y-118809523D02*
X206645295Y-118761904D01*
X206645295Y-118761904D02*
X206550057Y-118714285D01*
X206550057Y-118714285D02*
X206502438Y-118666666D01*
X206502438Y-118666666D02*
X206454819Y-118571428D01*
X185600595Y-98004819D02*
X185600595Y-98814342D01*
X185600595Y-98814342D02*
X185648214Y-98909580D01*
X185648214Y-98909580D02*
X185695833Y-98957200D01*
X185695833Y-98957200D02*
X185791071Y-99004819D01*
X185791071Y-99004819D02*
X185981547Y-99004819D01*
X185981547Y-99004819D02*
X186076785Y-98957200D01*
X186076785Y-98957200D02*
X186124404Y-98909580D01*
X186124404Y-98909580D02*
X186172023Y-98814342D01*
X186172023Y-98814342D02*
X186172023Y-98004819D01*
X187076785Y-98004819D02*
X186886309Y-98004819D01*
X186886309Y-98004819D02*
X186791071Y-98052438D01*
X186791071Y-98052438D02*
X186743452Y-98100057D01*
X186743452Y-98100057D02*
X186648214Y-98242914D01*
X186648214Y-98242914D02*
X186600595Y-98433390D01*
X186600595Y-98433390D02*
X186600595Y-98814342D01*
X186600595Y-98814342D02*
X186648214Y-98909580D01*
X186648214Y-98909580D02*
X186695833Y-98957200D01*
X186695833Y-98957200D02*
X186791071Y-99004819D01*
X186791071Y-99004819D02*
X186981547Y-99004819D01*
X186981547Y-99004819D02*
X187076785Y-98957200D01*
X187076785Y-98957200D02*
X187124404Y-98909580D01*
X187124404Y-98909580D02*
X187172023Y-98814342D01*
X187172023Y-98814342D02*
X187172023Y-98576247D01*
X187172023Y-98576247D02*
X187124404Y-98481009D01*
X187124404Y-98481009D02*
X187076785Y-98433390D01*
X187076785Y-98433390D02*
X186981547Y-98385771D01*
X186981547Y-98385771D02*
X186791071Y-98385771D01*
X186791071Y-98385771D02*
X186695833Y-98433390D01*
X186695833Y-98433390D02*
X186648214Y-98481009D01*
X186648214Y-98481009D02*
X186600595Y-98576247D01*
X198089653Y-120985114D02*
X197756320Y-120508923D01*
X197518225Y-120985114D02*
X197518225Y-119985114D01*
X197518225Y-119985114D02*
X197899177Y-119985114D01*
X197899177Y-119985114D02*
X197994415Y-120032733D01*
X197994415Y-120032733D02*
X198042034Y-120080352D01*
X198042034Y-120080352D02*
X198089653Y-120175590D01*
X198089653Y-120175590D02*
X198089653Y-120318447D01*
X198089653Y-120318447D02*
X198042034Y-120413685D01*
X198042034Y-120413685D02*
X197994415Y-120461304D01*
X197994415Y-120461304D02*
X197899177Y-120508923D01*
X197899177Y-120508923D02*
X197518225Y-120508923D01*
X199042034Y-120985114D02*
X198470606Y-120985114D01*
X198756320Y-120985114D02*
X198756320Y-119985114D01*
X198756320Y-119985114D02*
X198661082Y-120127971D01*
X198661082Y-120127971D02*
X198565844Y-120223209D01*
X198565844Y-120223209D02*
X198470606Y-120270828D01*
X199375368Y-119985114D02*
X199994415Y-119985114D01*
X199994415Y-119985114D02*
X199661082Y-120366066D01*
X199661082Y-120366066D02*
X199803939Y-120366066D01*
X199803939Y-120366066D02*
X199899177Y-120413685D01*
X199899177Y-120413685D02*
X199946796Y-120461304D01*
X199946796Y-120461304D02*
X199994415Y-120556542D01*
X199994415Y-120556542D02*
X199994415Y-120794637D01*
X199994415Y-120794637D02*
X199946796Y-120889875D01*
X199946796Y-120889875D02*
X199899177Y-120937495D01*
X199899177Y-120937495D02*
X199803939Y-120985114D01*
X199803939Y-120985114D02*
X199518225Y-120985114D01*
X199518225Y-120985114D02*
X199422987Y-120937495D01*
X199422987Y-120937495D02*
X199375368Y-120889875D01*
X196178095Y-91344819D02*
X196178095Y-92154342D01*
X196178095Y-92154342D02*
X196225714Y-92249580D01*
X196225714Y-92249580D02*
X196273333Y-92297200D01*
X196273333Y-92297200D02*
X196368571Y-92344819D01*
X196368571Y-92344819D02*
X196559047Y-92344819D01*
X196559047Y-92344819D02*
X196654285Y-92297200D01*
X196654285Y-92297200D02*
X196701904Y-92249580D01*
X196701904Y-92249580D02*
X196749523Y-92154342D01*
X196749523Y-92154342D02*
X196749523Y-91344819D01*
X197178095Y-91440057D02*
X197225714Y-91392438D01*
X197225714Y-91392438D02*
X197320952Y-91344819D01*
X197320952Y-91344819D02*
X197559047Y-91344819D01*
X197559047Y-91344819D02*
X197654285Y-91392438D01*
X197654285Y-91392438D02*
X197701904Y-91440057D01*
X197701904Y-91440057D02*
X197749523Y-91535295D01*
X197749523Y-91535295D02*
X197749523Y-91630533D01*
X197749523Y-91630533D02*
X197701904Y-91773390D01*
X197701904Y-91773390D02*
X197130476Y-92344819D01*
X197130476Y-92344819D02*
X197749523Y-92344819D01*
X172109580Y-70166666D02*
X172157200Y-70214285D01*
X172157200Y-70214285D02*
X172204819Y-70357142D01*
X172204819Y-70357142D02*
X172204819Y-70452380D01*
X172204819Y-70452380D02*
X172157200Y-70595237D01*
X172157200Y-70595237D02*
X172061961Y-70690475D01*
X172061961Y-70690475D02*
X171966723Y-70738094D01*
X171966723Y-70738094D02*
X171776247Y-70785713D01*
X171776247Y-70785713D02*
X171633390Y-70785713D01*
X171633390Y-70785713D02*
X171442914Y-70738094D01*
X171442914Y-70738094D02*
X171347676Y-70690475D01*
X171347676Y-70690475D02*
X171252438Y-70595237D01*
X171252438Y-70595237D02*
X171204819Y-70452380D01*
X171204819Y-70452380D02*
X171204819Y-70357142D01*
X171204819Y-70357142D02*
X171252438Y-70214285D01*
X171252438Y-70214285D02*
X171300057Y-70166666D01*
X172204819Y-69214285D02*
X172204819Y-69785713D01*
X172204819Y-69499999D02*
X171204819Y-69499999D01*
X171204819Y-69499999D02*
X171347676Y-69595237D01*
X171347676Y-69595237D02*
X171442914Y-69690475D01*
X171442914Y-69690475D02*
X171490533Y-69785713D01*
X159309819Y-86883333D02*
X160024104Y-86883333D01*
X160024104Y-86883333D02*
X160166961Y-86930952D01*
X160166961Y-86930952D02*
X160262200Y-87026190D01*
X160262200Y-87026190D02*
X160309819Y-87169047D01*
X160309819Y-87169047D02*
X160309819Y-87264285D01*
X160309819Y-85883333D02*
X160309819Y-86454761D01*
X160309819Y-86169047D02*
X159309819Y-86169047D01*
X159309819Y-86169047D02*
X159452676Y-86264285D01*
X159452676Y-86264285D02*
X159547914Y-86359523D01*
X159547914Y-86359523D02*
X159595533Y-86454761D01*
X212929819Y-119867857D02*
X212453628Y-120201190D01*
X212929819Y-120439285D02*
X211929819Y-120439285D01*
X211929819Y-120439285D02*
X211929819Y-120058333D01*
X211929819Y-120058333D02*
X211977438Y-119963095D01*
X211977438Y-119963095D02*
X212025057Y-119915476D01*
X212025057Y-119915476D02*
X212120295Y-119867857D01*
X212120295Y-119867857D02*
X212263152Y-119867857D01*
X212263152Y-119867857D02*
X212358390Y-119915476D01*
X212358390Y-119915476D02*
X212406009Y-119963095D01*
X212406009Y-119963095D02*
X212453628Y-120058333D01*
X212453628Y-120058333D02*
X212453628Y-120439285D01*
X212929819Y-118915476D02*
X212929819Y-119486904D01*
X212929819Y-119201190D02*
X211929819Y-119201190D01*
X211929819Y-119201190D02*
X212072676Y-119296428D01*
X212072676Y-119296428D02*
X212167914Y-119391666D01*
X212167914Y-119391666D02*
X212215533Y-119486904D01*
X212025057Y-118534523D02*
X211977438Y-118486904D01*
X211977438Y-118486904D02*
X211929819Y-118391666D01*
X211929819Y-118391666D02*
X211929819Y-118153571D01*
X211929819Y-118153571D02*
X211977438Y-118058333D01*
X211977438Y-118058333D02*
X212025057Y-118010714D01*
X212025057Y-118010714D02*
X212120295Y-117963095D01*
X212120295Y-117963095D02*
X212215533Y-117963095D01*
X212215533Y-117963095D02*
X212358390Y-118010714D01*
X212358390Y-118010714D02*
X212929819Y-118582142D01*
X212929819Y-118582142D02*
X212929819Y-117963095D01*
X232233333Y-111204819D02*
X231900000Y-110728628D01*
X231661905Y-111204819D02*
X231661905Y-110204819D01*
X231661905Y-110204819D02*
X232042857Y-110204819D01*
X232042857Y-110204819D02*
X232138095Y-110252438D01*
X232138095Y-110252438D02*
X232185714Y-110300057D01*
X232185714Y-110300057D02*
X232233333Y-110395295D01*
X232233333Y-110395295D02*
X232233333Y-110538152D01*
X232233333Y-110538152D02*
X232185714Y-110633390D01*
X232185714Y-110633390D02*
X232138095Y-110681009D01*
X232138095Y-110681009D02*
X232042857Y-110728628D01*
X232042857Y-110728628D02*
X231661905Y-110728628D01*
X232804762Y-110633390D02*
X232709524Y-110585771D01*
X232709524Y-110585771D02*
X232661905Y-110538152D01*
X232661905Y-110538152D02*
X232614286Y-110442914D01*
X232614286Y-110442914D02*
X232614286Y-110395295D01*
X232614286Y-110395295D02*
X232661905Y-110300057D01*
X232661905Y-110300057D02*
X232709524Y-110252438D01*
X232709524Y-110252438D02*
X232804762Y-110204819D01*
X232804762Y-110204819D02*
X232995238Y-110204819D01*
X232995238Y-110204819D02*
X233090476Y-110252438D01*
X233090476Y-110252438D02*
X233138095Y-110300057D01*
X233138095Y-110300057D02*
X233185714Y-110395295D01*
X233185714Y-110395295D02*
X233185714Y-110442914D01*
X233185714Y-110442914D02*
X233138095Y-110538152D01*
X233138095Y-110538152D02*
X233090476Y-110585771D01*
X233090476Y-110585771D02*
X232995238Y-110633390D01*
X232995238Y-110633390D02*
X232804762Y-110633390D01*
X232804762Y-110633390D02*
X232709524Y-110681009D01*
X232709524Y-110681009D02*
X232661905Y-110728628D01*
X232661905Y-110728628D02*
X232614286Y-110823866D01*
X232614286Y-110823866D02*
X232614286Y-111014342D01*
X232614286Y-111014342D02*
X232661905Y-111109580D01*
X232661905Y-111109580D02*
X232709524Y-111157200D01*
X232709524Y-111157200D02*
X232804762Y-111204819D01*
X232804762Y-111204819D02*
X232995238Y-111204819D01*
X232995238Y-111204819D02*
X233090476Y-111157200D01*
X233090476Y-111157200D02*
X233138095Y-111109580D01*
X233138095Y-111109580D02*
X233185714Y-111014342D01*
X233185714Y-111014342D02*
X233185714Y-110823866D01*
X233185714Y-110823866D02*
X233138095Y-110728628D01*
X233138095Y-110728628D02*
X233090476Y-110681009D01*
X233090476Y-110681009D02*
X232995238Y-110633390D01*
D11*
%TO.C,R3*%
X215175000Y-68555000D02*
X215175000Y-69325000D01*
X215175000Y-76635000D02*
X215175000Y-75865000D01*
X213805000Y-75865000D02*
X216545000Y-75865000D01*
X216545000Y-69325000D01*
X213805000Y-69325000D01*
X213805000Y-75865000D01*
%TO.C,R18*%
X235222936Y-97840000D02*
X236677064Y-97840000D01*
X235222936Y-99660000D02*
X236677064Y-99660000D01*
%TO.C,U4*%
X221690000Y-92890000D02*
X221690000Y-113330000D01*
X221690000Y-113330000D02*
X226190000Y-113330000D01*
X222940000Y-92890000D02*
X221690000Y-92890000D01*
X226190000Y-92890000D02*
X224940000Y-92890000D01*
X226190000Y-113330000D02*
X226190000Y-92890000D01*
X218690000Y-92830000D02*
X229190000Y-92830000D01*
X229190000Y-113390000D01*
X218690000Y-113390000D01*
X218690000Y-92830000D01*
X224940000Y-92890000D02*
G75*
G02*
X222940000Y-92890000I-1000000J0D01*
G01*
%TO.C,R15*%
X236677064Y-91840000D02*
X235222936Y-91840000D01*
X236677064Y-93660000D02*
X235222936Y-93660000D01*
%TO.C,C5*%
X177490000Y-111851248D02*
X177490000Y-113273752D01*
X179310000Y-111851248D02*
X179310000Y-113273752D01*
%TO.C,R17*%
X235222936Y-94840000D02*
X236677064Y-94840000D01*
X235222936Y-96660000D02*
X236677064Y-96660000D01*
%TO.C,U1*%
X183250000Y-72360000D02*
X183250000Y-82640000D01*
X183250000Y-82640000D02*
X184500000Y-82640000D01*
X186500000Y-82640000D02*
X187750000Y-82640000D01*
X187750000Y-72360000D02*
X183250000Y-72360000D01*
X187750000Y-82640000D02*
X187750000Y-72360000D01*
X190750000Y-82700000D02*
X180250000Y-82700000D01*
X180250000Y-72300000D01*
X190750000Y-72300000D01*
X190750000Y-82700000D01*
X184500000Y-82640000D02*
G75*
G02*
X186500000Y-82640000I1000000J0D01*
G01*
%TO.C,D3*%
X216730000Y-82195000D02*
X213640000Y-82195000D01*
X215185000Y-87745000D02*
G75*
G02*
X213640170Y-82195000I0J2990000D01*
G01*
X216729830Y-82195000D02*
G75*
G02*
X215185000Y-87745000I-1544830J-2560000D01*
G01*
X217685000Y-84755000D02*
G75*
G02*
X212685000Y-84755000I-2500000J0D01*
G01*
X212685000Y-84755000D02*
G75*
G02*
X217685000Y-84755000I2500000J0D01*
G01*
%TO.C,R2*%
X222600000Y-68505000D02*
X222600000Y-69275000D01*
X222600000Y-76585000D02*
X222600000Y-75815000D01*
X221230000Y-75815000D02*
X223970000Y-75815000D01*
X223970000Y-69275000D01*
X221230000Y-69275000D01*
X221230000Y-75815000D01*
%TO.C,R6*%
X235222936Y-106840000D02*
X236677064Y-106840000D01*
X235222936Y-108660000D02*
X236677064Y-108660000D01*
%TO.C,C4*%
X168976248Y-116090000D02*
X170398752Y-116090000D01*
X168976248Y-117910000D02*
X170398752Y-117910000D01*
%TO.C,R4*%
X207685000Y-68565000D02*
X207685000Y-69335000D01*
X207685000Y-76645000D02*
X207685000Y-75875000D01*
X206315000Y-75875000D02*
X209055000Y-75875000D01*
X209055000Y-69335000D01*
X206315000Y-69335000D01*
X206315000Y-75875000D01*
%TO.C,R9*%
X203340000Y-124527064D02*
X203340000Y-123072936D01*
X205160000Y-124527064D02*
X205160000Y-123072936D01*
%TO.C,D1*%
X231670000Y-82195000D02*
X228580000Y-82195000D01*
X230125000Y-87745000D02*
G75*
G02*
X228580170Y-82195000I0J2990000D01*
G01*
X231669830Y-82195000D02*
G75*
G02*
X230125000Y-87745000I-1544830J-2560000D01*
G01*
X232625000Y-84755000D02*
G75*
G02*
X227625000Y-84755000I-2500000J0D01*
G01*
X227625000Y-84755000D02*
G75*
G02*
X232625000Y-84755000I2500000J0D01*
G01*
%TO.C,R20*%
X161340000Y-113927064D02*
X161340000Y-112472936D01*
X163160000Y-113927064D02*
X163160000Y-112472936D01*
%TO.C,D5*%
X209260000Y-82195000D02*
X206170000Y-82195000D01*
X207715000Y-87745000D02*
G75*
G02*
X206170170Y-82195000I0J2990000D01*
G01*
X209259830Y-82195000D02*
G75*
G02*
X207715000Y-87745000I-1544830J-2560000D01*
G01*
X210215000Y-84755000D02*
G75*
G02*
X205215000Y-84755000I-2500000J0D01*
G01*
X205215000Y-84755000D02*
G75*
G02*
X210215000Y-84755000I2500000J0D01*
G01*
%TO.C,R14*%
X235222936Y-112840000D02*
X236677064Y-112840000D01*
X235222936Y-114660000D02*
X236677064Y-114660000D01*
%TO.C,C3*%
X194840000Y-124523752D02*
X194840000Y-123101248D01*
X196660000Y-124523752D02*
X196660000Y-123101248D01*
%TO.C,D4*%
X184715000Y-67975000D02*
X187005000Y-67975000D01*
X187785000Y-66505000D02*
X187785000Y-69445000D01*
X187905000Y-66505000D02*
X187905000Y-69445000D01*
X188025000Y-66505000D02*
X188025000Y-69445000D01*
X194735000Y-67975000D02*
X192445000Y-67975000D01*
X187005000Y-66505000D02*
X192445000Y-66505000D01*
X192445000Y-69445000D01*
X187005000Y-69445000D01*
X187005000Y-66505000D01*
%TO.C,U7*%
X167255000Y-100860000D02*
X167255000Y-111140000D01*
X167255000Y-111140000D02*
X172555000Y-111140000D01*
X168905000Y-100860000D02*
X167255000Y-100860000D01*
X172555000Y-100860000D02*
X170905000Y-100860000D01*
X172555000Y-111140000D02*
X172555000Y-100860000D01*
X170905000Y-100860000D02*
G75*
G02*
X168905000Y-100860000I-1000000J0D01*
G01*
%TO.C,C2*%
X193920000Y-75460000D02*
X195460000Y-75460000D01*
X193920000Y-75500000D02*
X195460000Y-75500000D01*
X193921000Y-75420000D02*
X195460000Y-75420000D01*
X193923000Y-75380000D02*
X195460000Y-75380000D01*
X193925000Y-75340000D02*
X195460000Y-75340000D01*
X193928000Y-75300000D02*
X195460000Y-75300000D01*
X193931000Y-75260000D02*
X195460000Y-75260000D01*
X193935000Y-75220000D02*
X195460000Y-75220000D01*
X193940000Y-75180000D02*
X195460000Y-75180000D01*
X193945000Y-75140000D02*
X195460000Y-75140000D01*
X193951000Y-75100000D02*
X195460000Y-75100000D01*
X193957000Y-75060000D02*
X195460000Y-75060000D01*
X193964000Y-75020000D02*
X195460000Y-75020000D01*
X193972000Y-74980000D02*
X195460000Y-74980000D01*
X193981000Y-74940000D02*
X195460000Y-74940000D01*
X193990000Y-74900000D02*
X195460000Y-74900000D01*
X193999000Y-74860000D02*
X195460000Y-74860000D01*
X194010000Y-74820000D02*
X195460000Y-74820000D01*
X194021000Y-74780000D02*
X195460000Y-74780000D01*
X194033000Y-74740000D02*
X195460000Y-74740000D01*
X194045000Y-74700000D02*
X195460000Y-74700000D01*
X194058000Y-74660000D02*
X195460000Y-74660000D01*
X194072000Y-74620000D02*
X195460000Y-74620000D01*
X194087000Y-74580000D02*
X195460000Y-74580000D01*
X194102000Y-74540000D02*
X195460000Y-74540000D01*
X194118000Y-74500000D02*
X195460000Y-74500000D01*
X194135000Y-74460000D02*
X195460000Y-74460000D01*
X194153000Y-74420000D02*
X195460000Y-74420000D01*
X194171000Y-74380000D02*
X195460000Y-74380000D01*
X194191000Y-74340000D02*
X195460000Y-74340000D01*
X194211000Y-74300000D02*
X195460000Y-74300000D01*
X194232000Y-74260000D02*
X195460000Y-74260000D01*
X194254000Y-74220000D02*
X195460000Y-74220000D01*
X194277000Y-74180000D02*
X195460000Y-74180000D01*
X194301000Y-74140000D02*
X195460000Y-74140000D01*
X194325000Y-74100000D02*
X195460000Y-74100000D01*
X194351000Y-74060000D02*
X195460000Y-74060000D01*
X194378000Y-74020000D02*
X195460000Y-74020000D01*
X194406000Y-73980000D02*
X195460000Y-73980000D01*
X194435000Y-73940000D02*
X195460000Y-73940000D01*
X194465000Y-73900000D02*
X195460000Y-73900000D01*
X194497000Y-73860000D02*
X195460000Y-73860000D01*
X194530000Y-73820000D02*
X195460000Y-73820000D01*
X194564000Y-73780000D02*
X195460000Y-73780000D01*
X194599000Y-73740000D02*
X195460000Y-73740000D01*
X194636000Y-73700000D02*
X195460000Y-73700000D01*
X194675000Y-73660000D02*
X195460000Y-73660000D01*
X194715000Y-73620000D02*
X195460000Y-73620000D01*
X194757000Y-73580000D02*
X195460000Y-73580000D01*
X194775000Y-78054775D02*
X195275000Y-78054775D01*
X194801000Y-73540000D02*
X195460000Y-73540000D01*
X194848000Y-73500000D02*
X195460000Y-73500000D01*
X194896000Y-73460000D02*
X198104000Y-73460000D01*
X194947000Y-73420000D02*
X198053000Y-73420000D01*
X195001000Y-73380000D02*
X197999000Y-73380000D01*
X195025000Y-78304775D02*
X195025000Y-77804775D01*
X195057000Y-73340000D02*
X197943000Y-73340000D01*
X195117000Y-73300000D02*
X197883000Y-73300000D01*
X195181000Y-73260000D02*
X197819000Y-73260000D01*
X195249000Y-73220000D02*
X197751000Y-73220000D01*
X195323000Y-73180000D02*
X197677000Y-73180000D01*
X195402000Y-73140000D02*
X197598000Y-73140000D01*
X195489000Y-73100000D02*
X197511000Y-73100000D01*
X195586000Y-73060000D02*
X197414000Y-73060000D01*
X195695000Y-73020000D02*
X197305000Y-73020000D01*
X195823000Y-72980000D02*
X197177000Y-72980000D01*
X195983000Y-72940000D02*
X197017000Y-72940000D01*
X196217000Y-72900000D02*
X196783000Y-72900000D01*
X197540000Y-73500000D02*
X198152000Y-73500000D01*
X197540000Y-73540000D02*
X198199000Y-73540000D01*
X197540000Y-73580000D02*
X198243000Y-73580000D01*
X197540000Y-73620000D02*
X198285000Y-73620000D01*
X197540000Y-73660000D02*
X198325000Y-73660000D01*
X197540000Y-73700000D02*
X198364000Y-73700000D01*
X197540000Y-73740000D02*
X198401000Y-73740000D01*
X197540000Y-73780000D02*
X198436000Y-73780000D01*
X197540000Y-73820000D02*
X198470000Y-73820000D01*
X197540000Y-73860000D02*
X198503000Y-73860000D01*
X197540000Y-73900000D02*
X198535000Y-73900000D01*
X197540000Y-73940000D02*
X198565000Y-73940000D01*
X197540000Y-73980000D02*
X198594000Y-73980000D01*
X197540000Y-74020000D02*
X198622000Y-74020000D01*
X197540000Y-74060000D02*
X198649000Y-74060000D01*
X197540000Y-74100000D02*
X198675000Y-74100000D01*
X197540000Y-74140000D02*
X198699000Y-74140000D01*
X197540000Y-74180000D02*
X198723000Y-74180000D01*
X197540000Y-74220000D02*
X198746000Y-74220000D01*
X197540000Y-74260000D02*
X198768000Y-74260000D01*
X197540000Y-74300000D02*
X198789000Y-74300000D01*
X197540000Y-74340000D02*
X198809000Y-74340000D01*
X197540000Y-74380000D02*
X198829000Y-74380000D01*
X197540000Y-74420000D02*
X198847000Y-74420000D01*
X197540000Y-74460000D02*
X198865000Y-74460000D01*
X197540000Y-74500000D02*
X198882000Y-74500000D01*
X197540000Y-74540000D02*
X198898000Y-74540000D01*
X197540000Y-74580000D02*
X198913000Y-74580000D01*
X197540000Y-74620000D02*
X198928000Y-74620000D01*
X197540000Y-74660000D02*
X198942000Y-74660000D01*
X197540000Y-74700000D02*
X198955000Y-74700000D01*
X197540000Y-74740000D02*
X198967000Y-74740000D01*
X197540000Y-74780000D02*
X198979000Y-74780000D01*
X197540000Y-74820000D02*
X198990000Y-74820000D01*
X197540000Y-74860000D02*
X199001000Y-74860000D01*
X197540000Y-74900000D02*
X199010000Y-74900000D01*
X197540000Y-74940000D02*
X199019000Y-74940000D01*
X197540000Y-74980000D02*
X199028000Y-74980000D01*
X197540000Y-75020000D02*
X199036000Y-75020000D01*
X197540000Y-75060000D02*
X199043000Y-75060000D01*
X197540000Y-75100000D02*
X199049000Y-75100000D01*
X197540000Y-75140000D02*
X199055000Y-75140000D01*
X197540000Y-75180000D02*
X199060000Y-75180000D01*
X197540000Y-75220000D02*
X199065000Y-75220000D01*
X197540000Y-75260000D02*
X199069000Y-75260000D01*
X197540000Y-75300000D02*
X199072000Y-75300000D01*
X197540000Y-75340000D02*
X199075000Y-75340000D01*
X197540000Y-75380000D02*
X199077000Y-75380000D01*
X197540000Y-75420000D02*
X199079000Y-75420000D01*
X197540000Y-75460000D02*
X199080000Y-75460000D01*
X197540000Y-75500000D02*
X199080000Y-75500000D01*
X199120000Y-75500000D02*
G75*
G02*
X193880000Y-75500000I-2620000J0D01*
G01*
X193880000Y-75500000D02*
G75*
G02*
X199120000Y-75500000I2620000J0D01*
G01*
%TO.C,L1*%
X200720000Y-85000000D02*
G75*
G02*
X193280000Y-85000000I-3720000J0D01*
G01*
X193280000Y-85000000D02*
G75*
G02*
X200720000Y-85000000I3720000J0D01*
G01*
%TO.C,SW1*%
X202500000Y-134250000D02*
X202500000Y-135750000D01*
X203750000Y-138250000D02*
X208250000Y-138250000D01*
X208250000Y-131750000D02*
X203750000Y-131750000D01*
X209500000Y-135750000D02*
X209500000Y-134250000D01*
%TO.C,SW2*%
X176692500Y-97090000D02*
X177002500Y-97090000D01*
X176692500Y-105910000D02*
X176692500Y-97090000D01*
X176692500Y-105910000D02*
X177002500Y-105910000D01*
X180902500Y-97090000D02*
X181212500Y-97090000D01*
X181212500Y-97090000D02*
X181212500Y-105910000D01*
X181212500Y-105910000D02*
X180902500Y-105910000D01*
X181412500Y-99500000D02*
X181912500Y-100000000D01*
X181912500Y-99000000D02*
X181412500Y-99500000D01*
X181912500Y-100000000D02*
X181912500Y-99000000D01*
%TO.C,R11*%
X208840000Y-124427064D02*
X208840000Y-122972936D01*
X210660000Y-124427064D02*
X210660000Y-122972936D01*
%TO.C,U3*%
X208190000Y-92890000D02*
X208190000Y-113330000D01*
X208190000Y-113330000D02*
X212690000Y-113330000D01*
X209440000Y-92890000D02*
X208190000Y-92890000D01*
X212690000Y-92890000D02*
X211440000Y-92890000D01*
X212690000Y-113330000D02*
X212690000Y-92890000D01*
X205190000Y-92830000D02*
X215690000Y-92830000D01*
X215690000Y-113390000D01*
X205190000Y-113390000D01*
X205190000Y-92830000D01*
X211440000Y-92890000D02*
G75*
G02*
X209440000Y-92890000I-1000000J0D01*
G01*
%TO.C,U5*%
X241940000Y-96670000D02*
X243570000Y-96670000D01*
X241940000Y-98300000D02*
X241940000Y-96670000D01*
D10*
X242300000Y-97030000D02*
X242300000Y-109730000D01*
X242300000Y-109730000D02*
X249920000Y-109730000D01*
X249920000Y-97030000D02*
X242300000Y-97030000D01*
X249920000Y-109730000D02*
X249920000Y-97030000D01*
D11*
%TO.C,R7*%
X200590000Y-123072936D02*
X200590000Y-124527064D01*
X202410000Y-123072936D02*
X202410000Y-124527064D01*
%TO.C,R5*%
X235222936Y-103840000D02*
X236677064Y-103840000D01*
X235222936Y-105660000D02*
X236677064Y-105660000D01*
%TO.C,R16*%
X235222936Y-100840000D02*
X236677064Y-100840000D01*
X235222936Y-102660000D02*
X236677064Y-102660000D01*
%TO.C,R1*%
X230150000Y-68490000D02*
X230150000Y-69260000D01*
X230150000Y-76570000D02*
X230150000Y-75800000D01*
X228780000Y-75800000D02*
X231520000Y-75800000D01*
X231520000Y-69260000D01*
X228780000Y-69260000D01*
X228780000Y-75800000D01*
%TO.C,D2*%
X224200000Y-82195000D02*
X221110000Y-82195000D01*
X222655000Y-87745000D02*
G75*
G02*
X221110170Y-82195000I0J2990000D01*
G01*
X224199830Y-82195000D02*
G75*
G02*
X222655000Y-87745000I-1544830J-2560000D01*
G01*
X225155000Y-84755000D02*
G75*
G02*
X220155000Y-84755000I-2500000J0D01*
G01*
X220155000Y-84755000D02*
G75*
G02*
X225155000Y-84755000I2500000J0D01*
G01*
%TO.C,R19*%
X161090000Y-107677064D02*
X161090000Y-106222936D01*
X162910000Y-107677064D02*
X162910000Y-106222936D01*
%TO.C,R10*%
X206090000Y-124427064D02*
X206090000Y-122972936D01*
X207910000Y-124427064D02*
X207910000Y-122972936D01*
%TO.C,U6*%
X186362500Y-99390000D02*
X185562500Y-99390000D01*
X186362500Y-99390000D02*
X187162500Y-99390000D01*
X186362500Y-102510000D02*
X185562500Y-102510000D01*
X186362500Y-102510000D02*
X187162500Y-102510000D01*
X185062500Y-99440000D02*
X184822500Y-99110000D01*
X185302500Y-99110000D01*
X185062500Y-99440000D01*
G36*
X185062500Y-99440000D02*
G01*
X184822500Y-99110000D01*
X185302500Y-99110000D01*
X185062500Y-99440000D01*
G37*
%TO.C,R13*%
X197840000Y-124527064D02*
X197840000Y-123072936D01*
X199660000Y-124527064D02*
X199660000Y-123072936D01*
%TO.C,U2*%
X194690000Y-92890000D02*
X194690000Y-113330000D01*
X194690000Y-113330000D02*
X199190000Y-113330000D01*
X195940000Y-92890000D02*
X194690000Y-92890000D01*
X199190000Y-92890000D02*
X197940000Y-92890000D01*
X199190000Y-113330000D02*
X199190000Y-92890000D01*
X191690000Y-92830000D02*
X202190000Y-92830000D01*
X202190000Y-113390000D01*
X191690000Y-113390000D01*
X191690000Y-92830000D01*
X197940000Y-92890000D02*
G75*
G02*
X195940000Y-92890000I-1000000J0D01*
G01*
%TO.C,C1*%
X172920000Y-69960000D02*
X174460000Y-69960000D01*
X172920000Y-70000000D02*
X174460000Y-70000000D01*
X172921000Y-69920000D02*
X174460000Y-69920000D01*
X172923000Y-69880000D02*
X174460000Y-69880000D01*
X172925000Y-69840000D02*
X174460000Y-69840000D01*
X172928000Y-69800000D02*
X174460000Y-69800000D01*
X172931000Y-69760000D02*
X174460000Y-69760000D01*
X172935000Y-69720000D02*
X174460000Y-69720000D01*
X172940000Y-69680000D02*
X174460000Y-69680000D01*
X172945000Y-69640000D02*
X174460000Y-69640000D01*
X172951000Y-69600000D02*
X174460000Y-69600000D01*
X172957000Y-69560000D02*
X174460000Y-69560000D01*
X172964000Y-69520000D02*
X174460000Y-69520000D01*
X172972000Y-69480000D02*
X174460000Y-69480000D01*
X172981000Y-69440000D02*
X174460000Y-69440000D01*
X172990000Y-69400000D02*
X174460000Y-69400000D01*
X172999000Y-69360000D02*
X174460000Y-69360000D01*
X173010000Y-69320000D02*
X174460000Y-69320000D01*
X173021000Y-69280000D02*
X174460000Y-69280000D01*
X173033000Y-69240000D02*
X174460000Y-69240000D01*
X173045000Y-69200000D02*
X174460000Y-69200000D01*
X173058000Y-69160000D02*
X174460000Y-69160000D01*
X173072000Y-69120000D02*
X174460000Y-69120000D01*
X173087000Y-69080000D02*
X174460000Y-69080000D01*
X173102000Y-69040000D02*
X174460000Y-69040000D01*
X173118000Y-69000000D02*
X174460000Y-69000000D01*
X173135000Y-68960000D02*
X174460000Y-68960000D01*
X173153000Y-68920000D02*
X174460000Y-68920000D01*
X173171000Y-68880000D02*
X174460000Y-68880000D01*
X173191000Y-68840000D02*
X174460000Y-68840000D01*
X173211000Y-68800000D02*
X174460000Y-68800000D01*
X173232000Y-68760000D02*
X174460000Y-68760000D01*
X173254000Y-68720000D02*
X174460000Y-68720000D01*
X173277000Y-68680000D02*
X174460000Y-68680000D01*
X173301000Y-68640000D02*
X174460000Y-68640000D01*
X173325000Y-68600000D02*
X174460000Y-68600000D01*
X173351000Y-68560000D02*
X174460000Y-68560000D01*
X173378000Y-68520000D02*
X174460000Y-68520000D01*
X173406000Y-68480000D02*
X174460000Y-68480000D01*
X173435000Y-68440000D02*
X174460000Y-68440000D01*
X173465000Y-68400000D02*
X174460000Y-68400000D01*
X173497000Y-68360000D02*
X174460000Y-68360000D01*
X173530000Y-68320000D02*
X174460000Y-68320000D01*
X173564000Y-68280000D02*
X174460000Y-68280000D01*
X173599000Y-68240000D02*
X174460000Y-68240000D01*
X173636000Y-68200000D02*
X174460000Y-68200000D01*
X173675000Y-68160000D02*
X174460000Y-68160000D01*
X173715000Y-68120000D02*
X174460000Y-68120000D01*
X173757000Y-68080000D02*
X174460000Y-68080000D01*
X173775000Y-72554775D02*
X174275000Y-72554775D01*
X173801000Y-68040000D02*
X174460000Y-68040000D01*
X173848000Y-68000000D02*
X174460000Y-68000000D01*
X173896000Y-67960000D02*
X177104000Y-67960000D01*
X173947000Y-67920000D02*
X177053000Y-67920000D01*
X174001000Y-67880000D02*
X176999000Y-67880000D01*
X174025000Y-72804775D02*
X174025000Y-72304775D01*
X174057000Y-67840000D02*
X176943000Y-67840000D01*
X174117000Y-67800000D02*
X176883000Y-67800000D01*
X174181000Y-67760000D02*
X176819000Y-67760000D01*
X174249000Y-67720000D02*
X176751000Y-67720000D01*
X174323000Y-67680000D02*
X176677000Y-67680000D01*
X174402000Y-67640000D02*
X176598000Y-67640000D01*
X174489000Y-67600000D02*
X176511000Y-67600000D01*
X174586000Y-67560000D02*
X176414000Y-67560000D01*
X174695000Y-67520000D02*
X176305000Y-67520000D01*
X174823000Y-67480000D02*
X176177000Y-67480000D01*
X174983000Y-67440000D02*
X176017000Y-67440000D01*
X175217000Y-67400000D02*
X175783000Y-67400000D01*
X176540000Y-68000000D02*
X177152000Y-68000000D01*
X176540000Y-68040000D02*
X177199000Y-68040000D01*
X176540000Y-68080000D02*
X177243000Y-68080000D01*
X176540000Y-68120000D02*
X177285000Y-68120000D01*
X176540000Y-68160000D02*
X177325000Y-68160000D01*
X176540000Y-68200000D02*
X177364000Y-68200000D01*
X176540000Y-68240000D02*
X177401000Y-68240000D01*
X176540000Y-68280000D02*
X177436000Y-68280000D01*
X176540000Y-68320000D02*
X177470000Y-68320000D01*
X176540000Y-68360000D02*
X177503000Y-68360000D01*
X176540000Y-68400000D02*
X177535000Y-68400000D01*
X176540000Y-68440000D02*
X177565000Y-68440000D01*
X176540000Y-68480000D02*
X177594000Y-68480000D01*
X176540000Y-68520000D02*
X177622000Y-68520000D01*
X176540000Y-68560000D02*
X177649000Y-68560000D01*
X176540000Y-68600000D02*
X177675000Y-68600000D01*
X176540000Y-68640000D02*
X177699000Y-68640000D01*
X176540000Y-68680000D02*
X177723000Y-68680000D01*
X176540000Y-68720000D02*
X177746000Y-68720000D01*
X176540000Y-68760000D02*
X177768000Y-68760000D01*
X176540000Y-68800000D02*
X177789000Y-68800000D01*
X176540000Y-68840000D02*
X177809000Y-68840000D01*
X176540000Y-68880000D02*
X177829000Y-68880000D01*
X176540000Y-68920000D02*
X177847000Y-68920000D01*
X176540000Y-68960000D02*
X177865000Y-68960000D01*
X176540000Y-69000000D02*
X177882000Y-69000000D01*
X176540000Y-69040000D02*
X177898000Y-69040000D01*
X176540000Y-69080000D02*
X177913000Y-69080000D01*
X176540000Y-69120000D02*
X177928000Y-69120000D01*
X176540000Y-69160000D02*
X177942000Y-69160000D01*
X176540000Y-69200000D02*
X177955000Y-69200000D01*
X176540000Y-69240000D02*
X177967000Y-69240000D01*
X176540000Y-69280000D02*
X177979000Y-69280000D01*
X176540000Y-69320000D02*
X177990000Y-69320000D01*
X176540000Y-69360000D02*
X178001000Y-69360000D01*
X176540000Y-69400000D02*
X178010000Y-69400000D01*
X176540000Y-69440000D02*
X178019000Y-69440000D01*
X176540000Y-69480000D02*
X178028000Y-69480000D01*
X176540000Y-69520000D02*
X178036000Y-69520000D01*
X176540000Y-69560000D02*
X178043000Y-69560000D01*
X176540000Y-69600000D02*
X178049000Y-69600000D01*
X176540000Y-69640000D02*
X178055000Y-69640000D01*
X176540000Y-69680000D02*
X178060000Y-69680000D01*
X176540000Y-69720000D02*
X178065000Y-69720000D01*
X176540000Y-69760000D02*
X178069000Y-69760000D01*
X176540000Y-69800000D02*
X178072000Y-69800000D01*
X176540000Y-69840000D02*
X178075000Y-69840000D01*
X176540000Y-69880000D02*
X178077000Y-69880000D01*
X176540000Y-69920000D02*
X178079000Y-69920000D01*
X176540000Y-69960000D02*
X178080000Y-69960000D01*
X176540000Y-70000000D02*
X178080000Y-70000000D01*
X178120000Y-70000000D02*
G75*
G02*
X172880000Y-70000000I-2620000J0D01*
G01*
X172880000Y-70000000D02*
G75*
G02*
X178120000Y-70000000I2620000J0D01*
G01*
%TO.C,J1*%
X160855000Y-81430000D02*
X171595000Y-81430000D01*
X160855000Y-91670000D02*
X160855000Y-81430000D01*
X164475000Y-91670000D02*
X164475000Y-81430000D01*
X165475000Y-91670000D02*
X165475000Y-81430000D01*
X169475000Y-91670000D02*
X169475000Y-81430000D01*
X171595000Y-81430000D02*
X171595000Y-88750000D01*
X171595000Y-89350000D02*
X171595000Y-91670000D01*
X171595000Y-91670000D02*
X160855000Y-91670000D01*
X172205000Y-89490000D02*
X171595000Y-89050000D01*
X172205000Y-88610000D01*
X172205000Y-89490000D01*
G36*
X172205000Y-89490000D02*
G01*
X171595000Y-89050000D01*
X172205000Y-88610000D01*
X172205000Y-89490000D01*
G37*
%TO.C,R12*%
X211565000Y-124452064D02*
X211565000Y-122997936D01*
X213385000Y-124452064D02*
X213385000Y-122997936D01*
%TO.C,R8*%
X235222936Y-109840000D02*
X236677064Y-109840000D01*
X235222936Y-111660000D02*
X236677064Y-111660000D01*
%TD*%
M02*
