M48
; DRILL file {KiCad 9.0.3} date 2025-12-16T11:32:55+0100
; FORMAT={-:-/ absolute / metric / decimal}
; #@! TF.CreationDate,2025-12-16T11:32:55+01:00
; #@! TF.GenerationSoftware,Kicad,Pcbnew,9.0.3
; #@! TF.FileFunction,MixedPlating,1,2
FMAT,2
METRIC
; #@! TA.AperFunction,Plated,PTH,ViaDrill
T1C0.300
; #@! TA.AperFunction,Plated,PTH,ComponentDrill
T2C0.800
; #@! TA.AperFunction,Plated,PTH,ComponentDrill
T3C0.900
; #@! TA.AperFunction,Plated,PTH,ComponentDrill
T4C1.100
; #@! TA.AperFunction,Plated,PTH,ComponentDrill
T5C1.200
; #@! TA.AperFunction,Plated,PTH,ComponentDrill
T6C1.400
; #@! TA.AperFunction,Plated,PTH,ComponentDrill
T7C1.500
; #@! TA.AperFunction,NonPlated,NPTH,ComponentDrill
T8C5.500
%
G90
G05
T1
X163.6Y-108.975
X168.6Y-107.325
X171.2Y-104.4
X171.275Y-113.9
X171.3Y-102.425
X171.862Y-105.387
X171.975Y-107.375
X175.2Y-101.7
X185.25Y-98.05
X185.325Y-103.65
X187.45Y-107.0
X187.5Y-100.0
X187.9Y-103.5
X188.7Y-108.95
X189.1Y-100.75
X189.125Y-95.625
X189.15Y-102.25
X189.475Y-106.2
X190.075Y-92.9
X194.675Y-114.45
X195.7Y-94.725
X197.8Y-129.275
X197.95Y-101.775
X199.6Y-131.025
X200.825Y-90.75
X203.75Y-103.425
X206.737Y-92.362
X208.587Y-96.162
X209.837Y-97.512
X211.775Y-90.175
X211.8Y-96.8
X212.4Y-88.65
X217.137Y-98.087
X217.3Y-101.775
X220.13Y-90.425
X224.0Y-98.425
X224.15Y-90.6
X230.137Y-111.987
X231.475Y-101.65
X240.425Y-104.475
X240.987Y-105.812
X241.438Y-107.462
X245.125Y-100.875
X245.25Y-102.925
X245.312Y-105.062
X246.175Y-108.4
X246.225Y-99.175
T2
X166.095Y-102.19
X166.095Y-104.73
X166.095Y-107.27
X166.095Y-109.81
X173.715Y-102.19
X173.715Y-104.73
X173.715Y-107.27
X173.715Y-109.81
X175.5Y-69.0
X175.5Y-71.0
X178.952Y-99.5
X178.952Y-101.5
X178.952Y-103.5
X181.69Y-73.69
X181.69Y-76.23
X181.69Y-78.77
X181.69Y-81.31
X189.31Y-73.69
X189.31Y-76.23
X189.31Y-78.77
X189.31Y-81.31
X193.13Y-94.22
X193.13Y-96.76
X193.13Y-99.3
X193.13Y-101.84
X193.13Y-104.38
X193.13Y-106.92
X193.13Y-109.46
X193.13Y-112.0
X196.5Y-74.5
X196.5Y-76.5
X200.75Y-94.22
X200.75Y-96.76
X200.75Y-99.3
X200.75Y-101.84
X200.75Y-104.38
X200.75Y-106.92
X200.75Y-109.46
X200.75Y-112.0
X206.63Y-94.22
X206.63Y-96.76
X206.63Y-99.3
X206.63Y-101.84
X206.63Y-104.38
X206.63Y-106.92
X206.63Y-109.46
X206.63Y-112.0
X207.685Y-67.525
X207.685Y-77.685
X214.25Y-94.22
X214.25Y-96.76
X214.25Y-99.3
X214.25Y-101.84
X214.25Y-104.38
X214.25Y-106.92
X214.25Y-109.46
X214.25Y-112.0
X215.175Y-67.515
X215.175Y-77.675
X220.13Y-94.22
X220.13Y-96.76
X220.13Y-99.3
X220.13Y-101.84
X220.13Y-104.38
X220.13Y-106.92
X220.13Y-109.46
X220.13Y-112.0
X222.6Y-67.465
X222.6Y-77.625
X227.75Y-94.22
X227.75Y-96.76
X227.75Y-99.3
X227.75Y-101.84
X227.75Y-104.38
X227.75Y-106.92
X227.75Y-109.46
X227.75Y-112.0
X230.15Y-67.45
X230.15Y-77.61
X243.57Y-98.3
X243.57Y-100.84
X243.57Y-103.38
X243.57Y-105.92
X243.57Y-108.46
X248.65Y-98.3
X248.65Y-100.84
X248.65Y-103.38
X248.65Y-105.92
X248.65Y-108.46
T3
X207.715Y-83.485
X207.715Y-86.025
X215.185Y-83.485
X215.185Y-86.025
X222.655Y-83.485
X222.655Y-86.025
X230.125Y-83.485
X230.125Y-86.025
T4
X183.375Y-67.975
X196.075Y-67.975
X202.75Y-132.75
X202.75Y-137.25
X209.25Y-132.75
X209.25Y-137.25
T5
X197.0Y-83.5
X197.0Y-86.5
T6
X167.475Y-84.05
X167.475Y-89.05
T7
X178.952Y-97.4
X178.952Y-105.6
T8
X164.5Y-71.0
X164.5Y-131.0
X244.5Y-71.0
X244.5Y-131.0
M30
