%TF.GenerationSoftware,KiCad,Pcbnew,9.0.3*%
%TF.CreationDate,2025-12-16T11:33:01+01:00*%
%TF.ProjectId,PTP_Project1_Dovsak,5054505f-5072-46f6-9a65-6374315f446f,rev?*%
%TF.SameCoordinates,Original*%
%TF.FileFunction,Paste,Top*%
%TF.FilePolarity,Positive*%
%FSLAX46Y46*%
G04 Gerber Fmt 4.6, Leading zero omitted, Abs format (unit mm)*
G04 Created by KiCad (PCBNEW 9.0.3) date 2025-12-16 11:33:01*
%MOMM*%
%LPD*%
G01*
G04 APERTURE LIST*
G04 Aperture macros list*
%AMRoundRect*
0 Rectangle with rounded corners*
0 $1 Rounding radius*
0 $2 $3 $4 $5 $6 $7 $8 $9 X,Y pos of 4 corners*
0 Add a 4 corners polygon primitive as box body*
4,1,4,$2,$3,$4,$5,$6,$7,$8,$9,$2,$3,0*
0 Add four circle primitives for the rounded corners*
1,1,$1+$1,$2,$3*
1,1,$1+$1,$4,$5*
1,1,$1+$1,$6,$7*
1,1,$1+$1,$8,$9*
0 Add four rect primitives between the rounded corners*
20,1,$1+$1,$2,$3,$4,$5,0*
20,1,$1+$1,$4,$5,$6,$7,0*
20,1,$1+$1,$6,$7,$8,$9,0*
20,1,$1+$1,$8,$9,$2,$3,0*%
G04 Aperture macros list end*
%ADD10RoundRect,0.250000X-0.400000X-0.625000X0.400000X-0.625000X0.400000X0.625000X-0.400000X0.625000X0*%
%ADD11RoundRect,0.250000X0.400000X0.625000X-0.400000X0.625000X-0.400000X-0.625000X0.400000X-0.625000X0*%
%ADD12RoundRect,0.250000X-0.650000X0.412500X-0.650000X-0.412500X0.650000X-0.412500X0.650000X0.412500X0*%
%ADD13RoundRect,0.250000X-0.412500X-0.650000X0.412500X-0.650000X0.412500X0.650000X-0.412500X0.650000X0*%
%ADD14RoundRect,0.250000X0.625000X-0.400000X0.625000X0.400000X-0.625000X0.400000X-0.625000X-0.400000X0*%
%ADD15RoundRect,0.250000X0.650000X-0.412500X0.650000X0.412500X-0.650000X0.412500X-0.650000X-0.412500X0*%
%ADD16RoundRect,0.250000X-0.625000X0.400000X-0.625000X-0.400000X0.625000X-0.400000X0.625000X0.400000X0*%
%ADD17RoundRect,0.150000X-0.512500X-0.150000X0.512500X-0.150000X0.512500X0.150000X-0.512500X0.150000X0*%
G04 APERTURE END LIST*
D10*
%TO.C,R18*%
X234400000Y-98750000D03*
X237500000Y-98750000D03*
%TD*%
D11*
%TO.C,R15*%
X237500000Y-92750000D03*
X234400000Y-92750000D03*
%TD*%
D12*
%TO.C,C5*%
X178400000Y-111000000D03*
X178400000Y-114125000D03*
%TD*%
D10*
%TO.C,R17*%
X234400000Y-95750000D03*
X237500000Y-95750000D03*
%TD*%
%TO.C,R6*%
X234400000Y-107750000D03*
X237500000Y-107750000D03*
%TD*%
D13*
%TO.C,C4*%
X168125000Y-117000000D03*
X171250000Y-117000000D03*
%TD*%
D14*
%TO.C,R9*%
X204250000Y-125350000D03*
X204250000Y-122250000D03*
%TD*%
%TO.C,R20*%
X162250000Y-114750000D03*
X162250000Y-111650000D03*
%TD*%
D10*
%TO.C,R14*%
X234400000Y-113750000D03*
X237500000Y-113750000D03*
%TD*%
D15*
%TO.C,C3*%
X195750000Y-125375000D03*
X195750000Y-122250000D03*
%TD*%
D14*
%TO.C,R11*%
X209750000Y-125250000D03*
X209750000Y-122150000D03*
%TD*%
D16*
%TO.C,R7*%
X201500000Y-122250000D03*
X201500000Y-125350000D03*
%TD*%
D10*
%TO.C,R5*%
X234400000Y-104750000D03*
X237500000Y-104750000D03*
%TD*%
%TO.C,R16*%
X234400000Y-101750000D03*
X237500000Y-101750000D03*
%TD*%
D14*
%TO.C,R19*%
X162000000Y-108500000D03*
X162000000Y-105400000D03*
%TD*%
%TO.C,R10*%
X207000000Y-125250000D03*
X207000000Y-122150000D03*
%TD*%
D17*
%TO.C,U6*%
X185225000Y-100000000D03*
X185225000Y-100950000D03*
X185225000Y-101900000D03*
X187500000Y-101900000D03*
X187500000Y-100950000D03*
X187500000Y-100000000D03*
%TD*%
D14*
%TO.C,R13*%
X198750000Y-125350000D03*
X198750000Y-122250000D03*
%TD*%
%TO.C,R12*%
X212475000Y-125275000D03*
X212475000Y-122175000D03*
%TD*%
D10*
%TO.C,R8*%
X234400000Y-110750000D03*
X237500000Y-110750000D03*
%TD*%
M02*
