%TF.GenerationSoftware,KiCad,Pcbnew,9.0.3*%
%TF.CreationDate,2025-12-16T11:33:01+01:00*%
%TF.ProjectId,PTP_Project1_Dovsak,5054505f-5072-46f6-9a65-6374315f446f,rev?*%
%TF.SameCoordinates,Original*%
%TF.FileFunction,Soldermask,Top*%
%TF.FilePolarity,Negative*%
%FSLAX46Y46*%
G04 Gerber Fmt 4.6, Leading zero omitted, Abs format (unit mm)*
G04 Created by KiCad (PCBNEW 9.0.3) date 2025-12-16 11:33:01*
%MOMM*%
%LPD*%
G01*
G04 APERTURE LIST*
G04 Aperture macros list*
%AMRoundRect*
0 Rectangle with rounded corners*
0 $1 Rounding radius*
0 $2 $3 $4 $5 $6 $7 $8 $9 X,Y pos of 4 corners*
0 Add a 4 corners polygon primitive as box body*
4,1,4,$2,$3,$4,$5,$6,$7,$8,$9,$2,$3,0*
0 Add four circle primitives for the rounded corners*
1,1,$1+$1,$2,$3*
1,1,$1+$1,$4,$5*
1,1,$1+$1,$6,$7*
1,1,$1+$1,$8,$9*
0 Add four rect primitives between the rounded corners*
20,1,$1+$1,$2,$3,$4,$5,0*
20,1,$1+$1,$4,$5,$6,$7,0*
20,1,$1+$1,$6,$7,$8,$9,0*
20,1,$1+$1,$8,$9,$2,$3,0*%
G04 Aperture macros list end*
%ADD10C,5.500000*%
%ADD11C,1.600000*%
%ADD12RoundRect,0.250000X-0.400000X-0.625000X0.400000X-0.625000X0.400000X0.625000X-0.400000X0.625000X0*%
%ADD13RoundRect,0.250000X-0.950000X-0.550000X0.950000X-0.550000X0.950000X0.550000X-0.950000X0.550000X0*%
%ADD14O,2.400000X1.600000*%
%ADD15RoundRect,0.250000X0.400000X0.625000X-0.400000X0.625000X-0.400000X-0.625000X0.400000X-0.625000X0*%
%ADD16RoundRect,0.250000X-0.650000X0.412500X-0.650000X-0.412500X0.650000X-0.412500X0.650000X0.412500X0*%
%ADD17RoundRect,0.250000X0.950000X0.550000X-0.950000X0.550000X-0.950000X-0.550000X0.950000X-0.550000X0*%
%ADD18R,1.800000X1.800000*%
%ADD19C,1.800000*%
%ADD20RoundRect,0.250000X-0.412500X-0.650000X0.412500X-0.650000X0.412500X0.650000X-0.412500X0.650000X0*%
%ADD21RoundRect,0.250000X0.625000X-0.400000X0.625000X0.400000X-0.625000X0.400000X-0.625000X-0.400000X0*%
%ADD22RoundRect,0.250000X0.650000X-0.412500X0.650000X0.412500X-0.650000X0.412500X-0.650000X-0.412500X0*%
%ADD23RoundRect,0.249999X-0.850001X-0.850001X0.850001X-0.850001X0.850001X0.850001X-0.850001X0.850001X0*%
%ADD24C,2.200000*%
%ADD25RoundRect,0.250000X-0.550000X-0.550000X0.550000X-0.550000X0.550000X0.550000X-0.550000X0.550000X0*%
%ADD26RoundRect,0.250000X0.550000X-0.550000X0.550000X0.550000X-0.550000X0.550000X-0.550000X-0.550000X0*%
%ADD27C,2.400000*%
%ADD28C,2.000000*%
%ADD29O,3.500000X2.200000*%
%ADD30R,2.500000X1.500000*%
%ADD31O,2.500000X1.500000*%
%ADD32R,1.600000X1.600000*%
%ADD33RoundRect,0.250000X-0.625000X0.400000X-0.625000X-0.400000X0.625000X-0.400000X0.625000X0.400000X0*%
%ADD34RoundRect,0.150000X-0.512500X-0.150000X0.512500X-0.150000X0.512500X0.150000X-0.512500X0.150000X0*%
%ADD35RoundRect,0.250001X1.149999X-1.149999X1.149999X1.149999X-1.149999X1.149999X-1.149999X-1.149999X0*%
%ADD36C,2.800000*%
G04 APERTURE END LIST*
D10*
%TO.C,H1*%
X244500000Y-71000000D03*
%TD*%
D11*
%TO.C,R3*%
X215175000Y-77675000D03*
X215175000Y-67515000D03*
%TD*%
D12*
%TO.C,R18*%
X234400000Y-98750000D03*
X237500000Y-98750000D03*
%TD*%
D10*
%TO.C,H4*%
X164500000Y-71000000D03*
%TD*%
D13*
%TO.C,U4*%
X220130000Y-94220000D03*
D14*
X220130000Y-96760000D03*
X220130000Y-99300000D03*
X220130000Y-101840000D03*
X220130000Y-104380000D03*
X220130000Y-106920000D03*
X220130000Y-109460000D03*
X220130000Y-112000000D03*
X227750000Y-112000000D03*
X227750000Y-109460000D03*
X227750000Y-106920000D03*
X227750000Y-104380000D03*
X227750000Y-101840000D03*
X227750000Y-99300000D03*
X227750000Y-96760000D03*
X227750000Y-94220000D03*
%TD*%
D15*
%TO.C,R15*%
X237500000Y-92750000D03*
X234400000Y-92750000D03*
%TD*%
D16*
%TO.C,C5*%
X178400000Y-111000000D03*
X178400000Y-114125000D03*
%TD*%
D12*
%TO.C,R17*%
X234400000Y-95750000D03*
X237500000Y-95750000D03*
%TD*%
D17*
%TO.C,U1*%
X189310000Y-81310000D03*
D14*
X189310000Y-78770000D03*
X189310000Y-76230000D03*
X189310000Y-73690000D03*
X181690000Y-73690000D03*
X181690000Y-76230000D03*
X181690000Y-78770000D03*
X181690000Y-81310000D03*
%TD*%
D18*
%TO.C,D3*%
X215185000Y-83485000D03*
D19*
X215185000Y-86025000D03*
%TD*%
D10*
%TO.C,H3*%
X164500000Y-131000000D03*
%TD*%
D11*
%TO.C,R2*%
X222600000Y-77625000D03*
X222600000Y-67465000D03*
%TD*%
D12*
%TO.C,R6*%
X234400000Y-107750000D03*
X237500000Y-107750000D03*
%TD*%
D10*
%TO.C,H2*%
X244500000Y-131000000D03*
%TD*%
D20*
%TO.C,C4*%
X168125000Y-117000000D03*
X171250000Y-117000000D03*
%TD*%
D11*
%TO.C,R4*%
X207685000Y-77685000D03*
X207685000Y-67525000D03*
%TD*%
D21*
%TO.C,R9*%
X204250000Y-125350000D03*
X204250000Y-122250000D03*
%TD*%
D18*
%TO.C,D1*%
X230125000Y-83485000D03*
D19*
X230125000Y-86025000D03*
%TD*%
D21*
%TO.C,R20*%
X162250000Y-114750000D03*
X162250000Y-111650000D03*
%TD*%
D18*
%TO.C,D5*%
X207715000Y-83485000D03*
D19*
X207715000Y-86025000D03*
%TD*%
D12*
%TO.C,R14*%
X234400000Y-113750000D03*
X237500000Y-113750000D03*
%TD*%
D22*
%TO.C,C3*%
X195750000Y-125375000D03*
X195750000Y-122250000D03*
%TD*%
D23*
%TO.C,D4*%
X183375000Y-67975000D03*
D24*
X196075000Y-67975000D03*
%TD*%
D25*
%TO.C,U7*%
X166095000Y-102190000D03*
D11*
X166095000Y-104730000D03*
X166095000Y-107270000D03*
X166095000Y-109810000D03*
X173715000Y-109810000D03*
X173715000Y-107270000D03*
X173715000Y-104730000D03*
X173715000Y-102190000D03*
%TD*%
D26*
%TO.C,C2*%
X196500000Y-76500000D03*
D11*
X196500000Y-74500000D03*
%TD*%
D27*
%TO.C,L1*%
X197000000Y-86500000D03*
X197000000Y-83500000D03*
%TD*%
D28*
%TO.C,SW1*%
X202750000Y-132750000D03*
X209250000Y-132750000D03*
X202750000Y-137250000D03*
X209250000Y-137250000D03*
%TD*%
D29*
%TO.C,SW2*%
X178952500Y-97400000D03*
X178952500Y-105600000D03*
D30*
X178952500Y-99500000D03*
D31*
X178952500Y-101500000D03*
X178952500Y-103500000D03*
%TD*%
D21*
%TO.C,R11*%
X209750000Y-125250000D03*
X209750000Y-122150000D03*
%TD*%
D13*
%TO.C,U3*%
X206630000Y-94220000D03*
D14*
X206630000Y-96760000D03*
X206630000Y-99300000D03*
X206630000Y-101840000D03*
X206630000Y-104380000D03*
X206630000Y-106920000D03*
X206630000Y-109460000D03*
X206630000Y-112000000D03*
X214250000Y-112000000D03*
X214250000Y-109460000D03*
X214250000Y-106920000D03*
X214250000Y-104380000D03*
X214250000Y-101840000D03*
X214250000Y-99300000D03*
X214250000Y-96760000D03*
X214250000Y-94220000D03*
%TD*%
D32*
%TO.C,U5*%
X243570000Y-98300000D03*
D11*
X243570000Y-100840000D03*
X243570000Y-103380000D03*
X243570000Y-105920000D03*
X243570000Y-108460000D03*
X248650000Y-108460000D03*
X248650000Y-105920000D03*
X248650000Y-103380000D03*
X248650000Y-100840000D03*
X248650000Y-98300000D03*
%TD*%
D33*
%TO.C,R7*%
X201500000Y-122250000D03*
X201500000Y-125350000D03*
%TD*%
D12*
%TO.C,R5*%
X234400000Y-104750000D03*
X237500000Y-104750000D03*
%TD*%
%TO.C,R16*%
X234400000Y-101750000D03*
X237500000Y-101750000D03*
%TD*%
D11*
%TO.C,R1*%
X230150000Y-77610000D03*
X230150000Y-67450000D03*
%TD*%
D18*
%TO.C,D2*%
X222655000Y-83485000D03*
D19*
X222655000Y-86025000D03*
%TD*%
D21*
%TO.C,R19*%
X162000000Y-108500000D03*
X162000000Y-105400000D03*
%TD*%
%TO.C,R10*%
X207000000Y-125250000D03*
X207000000Y-122150000D03*
%TD*%
D34*
%TO.C,U6*%
X185225000Y-100000000D03*
X185225000Y-100950000D03*
X185225000Y-101900000D03*
X187500000Y-101900000D03*
X187500000Y-100950000D03*
X187500000Y-100000000D03*
%TD*%
D21*
%TO.C,R13*%
X198750000Y-125350000D03*
X198750000Y-122250000D03*
%TD*%
D13*
%TO.C,U2*%
X193130000Y-94220000D03*
D14*
X193130000Y-96760000D03*
X193130000Y-99300000D03*
X193130000Y-101840000D03*
X193130000Y-104380000D03*
X193130000Y-106920000D03*
X193130000Y-109460000D03*
X193130000Y-112000000D03*
X200750000Y-112000000D03*
X200750000Y-109460000D03*
X200750000Y-106920000D03*
X200750000Y-104380000D03*
X200750000Y-101840000D03*
X200750000Y-99300000D03*
X200750000Y-96760000D03*
X200750000Y-94220000D03*
%TD*%
D26*
%TO.C,C1*%
X175500000Y-71000000D03*
D11*
X175500000Y-69000000D03*
%TD*%
D35*
%TO.C,J1*%
X167475000Y-89050000D03*
D36*
X167475000Y-84050000D03*
%TD*%
D21*
%TO.C,R12*%
X212475000Y-125275000D03*
X212475000Y-122175000D03*
%TD*%
D12*
%TO.C,R8*%
X234400000Y-110750000D03*
X237500000Y-110750000D03*
%TD*%
M02*
